<?xml version="1.0" encoding="utf-8"?>
<!-- Generator: Adobe Illustrator 17.1.0, SVG Export Plug-In . SVG Version: 6.00 Build 0)  -->
<!DOCTYPE svg PUBLIC "-//W3C//DTD SVG 1.1//EN" "http://www.w3.org/Graphics/SVG/1.1/DTD/svg11.dtd">
<svg version="1.1" id="Capa_1" xmlns="http://www.w3.org/2000/svg" xmlns:xlink="http://www.w3.org/1999/xlink" x="0px" y="0px"
	 width="1000px" height="1000px" viewBox="0 0 1000 1000" enable-background="new 0 0 1000 1000" xml:space="preserve">
<path d="M797.552,115c0,0-335.934,0-335.934,0c-70.621,0-96.378,9.915-111.781,17.83C315.344,149.646,137.68,239.626,137.68,239.626
	l0.076,0.031c-67.021,41.038-113.91,118.694-113.91,187.677C23.846,483.656,55,545.948,103,589.297v205.651
	C103,903.445,129.287,914,221.75,914h356.313c22.617,0,43.586-6.849,61.575-17.786l0.277,0.244l200.397-120.011
	c0,0-0.11-0.412-0.23-0.448C892.733,736.259,895,736.24,895,676.189c0,0,0-205.636,0-205.651c0-3.836,17.063-17.185,20.094-20.583
	c6.601-7.398,12.675-15.199,18.321-23.349c11.135-16.073,20.408-33.469,27.42-51.727c13.581-35.359,17.785-75.154,6.714-111.874
	C946.643,193.665,874.875,115,797.552,115z M643.849,532.229C627.31,547.204,618,568.564,618,590.943v205.611
	C618,818.387,599.896,836,578.063,836H221.75c-21.753,0-39.75-17.613-39.75-39.447V590.943c0-22.379-9.385-43.739-25.925-58.713
	c-44.39-40.189-65.828-102.425-40.292-159.283c7.486-16.668,18.813-31.512,32.543-43.532c23.5-20.574,48.732-28,76.187-30.538
	c10.679-0.987,21.702-1.235,33.087-1.229c38.213,0.02,76.429,0.04,114.643,0.061c61.062,0.033,122.125,0.067,183.187,0.101
	c55.291,0,110.241,31.816,130.584,84.612C707.237,437.498,685.883,494.173,643.849,532.229z"/>
<path d="M302.722,415.333c0-22.645-18.896-41.542-41.542-41.542c-22.645,0-41.541,18.896-41.541,41.542
	c0,22.645,18.896,41.541,41.541,41.541C283.826,456.875,302.722,437.978,302.722,415.333z"/>
<path d="M512.506,448.566c-22.645,0-41.542,18.896-41.542,41.541c0,22.645,18.896,41.542,41.542,41.542
	c22.645,0,41.541-18.896,41.541-41.542C554.048,467.463,535.151,448.566,512.506,448.566z"/>
<path d="M342.187,510.878c-22.645,0-41.542,18.896-41.542,41.542c0,22.645,18.896,41.541,41.542,41.541s41.542-18.896,41.542-41.541
	C383.728,529.775,364.832,510.878,342.187,510.878z"/>
<path d="M481.35,679.121c-22.645,0-41.541,18.896-41.541,41.542c0,22.645,18.896,41.541,41.541,41.541
	c22.645,0,41.542-18.896,41.542-41.541C522.892,698.018,503.995,679.121,481.35,679.121z"/>
<path d="M286.106,697.815c-22.645,0-41.542,18.896-41.542,41.542c0,22.645,18.896,41.541,41.542,41.541
	c22.645,0,41.541-18.896,41.541-41.541C327.647,716.711,308.75,697.815,286.106,697.815z"/>
</svg>
