<?xml version="1.0" encoding="utf-8"?>
<!-- Generator: Adobe Illustrator 17.1.0, SVG Export Plug-In . SVG Version: 6.00 Build 0)  -->
<!DOCTYPE svg PUBLIC "-//W3C//DTD SVG 1.1//EN" "http://www.w3.org/Graphics/SVG/1.1/DTD/svg11.dtd">
<svg version="1.1" id="Capa_1" xmlns="http://www.w3.org/2000/svg" xmlns:xlink="http://www.w3.org/1999/xlink" x="0px" y="0px"
	 width="1000px" height="1000px" viewBox="0 0 1000 1000" enable-background="new 0 0 1000 1000" xml:space="preserve">
<path d="M258,296c-21.5-0.5-61.9,11.2-76.3,17.6c-20.3,9-39.3,23.5-55.7,41.3c-38,41.3-62.2,100.6-57.2,152
	c1.4,14.4,6.7,25,14.8,36.6c3.2,4.5,4.3,3.7,2.8-1.6c-8.5-29.3,5.3-60.3,22.3-83.9c55.7-77.2,158.1-51.3,233.6-24.8
	c-20.3,32.9-30.2,67.4-31.7,101c-0.2,4.1-0.7,8.1-0.6,12.1c0.1,7.7,1,15.2,2.1,22.7c0.7,5.5,1.6,11,2.9,16.4
	c1.5,6.4,3.3,12.5,5.5,18.6c2.3,6.3,4.9,12.3,7.9,18.2c2.5,5,4.9,10,7.9,14.7c4.3,6.8,9.3,12.9,14.6,19c2.9,3.3,5.4,6.9,8.6,10.1
	c9.1,8.9,19,17,30.3,23.8L858.8,967c30.9,15.6,72.6,8.8,92.2-10.8c19.6-19.6,35.5-54.5,9-90.3L682.7,396.5
	c-6.7-11.2-14.8-21.1-23.6-30c-3.2-3.2-6.8-5.8-10.2-8.8c-5.9-5.1-11.8-9.9-18.3-14.1c-4.9-3.2-10-5.8-15.3-8.4
	c-5.3-2.7-10.8-5-16.5-7.2c-6.7-2.5-13.3-4.7-20.3-6.3c-3.9-0.9-7.9-1.5-12-2.1c-42.9-7.3-89.9,0.7-134.3,26.3
	c0.9-0.5-18.4-60.3-19.8-65.8c-6-24.5-10.9-50-9.4-75.3c3-51.1,39.8-93.4,86.4-112.4c16.5-6.8,33-9,50.2-4c5.3,1.5,6.2,0.4,1.6-2.8
	c-91.6-63.7-216.2,44.2-239.8,130c-2.5,9.1-7.5,25.8-7.8,44.5c0,0-63.2-129.8,0.8-239.4c2.8-4.8,1.2-6.5-3.5-3.7
	c-21.7,12.7-77.1,51.2-91.6,119.8c-5.5,26.1-7.1,44.3-7,57.8c-13.6-0.1-31.8,1.5-57.8,7C66,216.2,27.5,271.6,14.8,293.3
	c-2.8,4.8-1,6.3,3.7,3.5C128.1,232.8,257.9,295.9,258,296z M449.3,454.1c30-30,65.8-46.5,100.8-46.5c28.4,0,52.5,11.3,68.9,30.4
	c-13,5.1-26.3,13.5-43.5,28.7c-38.8,35.3-46,77.8-16.8,53.8c21.8-18.6,61.3-32.7,88-39.5l37.6,63.7c-13.2,7.3-29,19.1-41.4,38.1
	c-26.2,40-16.2,73.7,6.3,46.2c13-16,42.7-26.7,65.5-33l50.8,85.9c-9.9,6-20.8,14.5-29.8,28.2c-21.3,32.5-13.2,59.9,5.1,37.5
	c9.7-11.9,30.8-20.2,48.5-25.5l103.9,175.8L444.5,632.8c-22.9-13.7-37.4-36.7-40.9-64.9C398.8,529.4,415.5,487.9,449.3,454.1z"/>
</svg>
