<?xml version="1.0" encoding="utf-8"?>
<!-- Generator: Adobe Illustrator 16.0.0, SVG Export Plug-In . SVG Version: 6.00 Build 0)  -->
<!DOCTYPE svg PUBLIC "-//W3C//DTD SVG 1.1//EN" "http://www.w3.org/Graphics/SVG/1.1/DTD/svg11.dtd">
<svg version="1.1" id="Capa_1" xmlns="http://www.w3.org/2000/svg" xmlns:xlink="http://www.w3.org/1999/xlink" x="0px" y="0px"
	 width="39.032px" height="39.672px" viewBox="0 0 39.032 39.672" enable-background="new 0 0 39.032 39.672" xml:space="preserve">
<g>
	<path fill="#040606" d="M38.717,19.863c-0.644-5.181-3.594-8.017-5.666-9.399c-1.073-0.715-2.408-0.93-3.651-0.588
		c-2.256,0.62-4.05,0.494-5.237,0.238C24,10.079,23.885,9.935,23.886,9.77c0-0.165,0.116-0.308,0.278-0.342
		c2.034-0.425,3.26-1.697,3.26-1.697c2.541-3.47-3.647-5.757-8.022-6.891C18.86,0.7,18.285,0.849,17.881,1.237
		c-0.403,0.388-0.576,0.958-0.457,1.505c0.441,2.015-0.213,4.42-2.959,4.792c-4.486,0.606-4.645,3.484-4.645,3.484
		c0.293,3.514,5.212,4.788,8.445,5.247c0.176,0.025,0.304,0.179,0.298,0.356s-0.145,0.322-0.322,0.334
		c-4.693,0.339-7.923-1.432-9.629-2.737c-1.178-0.901-2.752-1.107-4.123-0.543c-3.654,1.503-4.314,4.277-4.202,6.396
		c0.085,1.601,1.402,2.86,3.005,2.876l32.372,0.331c0.878,0.009,1.718-0.36,2.303-1.015S38.826,20.734,38.717,19.863z"/>
	<path fill="#040606" d="M33.73,29.202c-0.658,0-0.971-0.979-1.271-3.521c-0.063-0.533-0.515-0.933-1.051-0.933h-0.114
		c-0.535,0-0.987,0.4-1.05,0.933c-0.301,2.543-0.612,3.521-1.271,3.521S28,28.229,27.7,25.683c-0.063-0.532-0.514-0.934-1.05-0.934
		h-0.115c-0.537,0-0.986,0.4-1.05,0.934c-0.301,2.546-0.612,3.52-1.271,3.52c-0.66,0-0.973-0.974-1.273-3.52
		c-0.063-0.532-0.514-0.934-1.05-0.934h-0.086c-0.554,0-1.018,0.413-1.083,0.963c-0.301,2.523-0.613,3.49-1.27,3.49
		s-0.968-0.967-1.268-3.491c-0.065-0.55-0.531-0.962-1.084-0.962h-0.052c-0.554,0-1.018,0.413-1.083,0.964
		c-0.299,2.522-0.611,3.489-1.269,3.489s-0.97-0.967-1.27-3.491c-0.065-0.55-0.531-0.962-1.084-0.962h-0.057
		c-0.554,0-1.018,0.413-1.083,0.963c-0.3,2.523-0.613,3.49-1.27,3.49c-0.657,0-0.97-0.969-1.27-3.49
		c-0.065-0.549-0.531-0.963-1.084-0.963c-0.586,0-1.081,0.438-1.151,1.02c-0.298,2.479-0.611,3.434-1.264,3.434
		c-0.661,0-0.922-0.904-1.06-3.234c-0.041-0.685-0.607-1.219-1.293-1.219l2.555,11.862c0.385,1.786,1.963,3.061,3.79,3.061h21.143
		c1.854,0,3.448-1.313,3.805-3.132l2.309-11.791h-0.077c-0.694,0-1.279,0.518-1.365,1.206C34.676,28.293,34.364,29.202,33.73,29.202
		z"/>
</g>
</svg>
