<?xml version="1.0" encoding="iso-8859-1"?>
<!-- Generator: Adobe Illustrator 16.0.0, SVG Export Plug-In . SVG Version: 6.00 Build 0)  -->
<!DOCTYPE svg PUBLIC "-//W3C//DTD SVG 1.1//EN" "http://www.w3.org/Graphics/SVG/1.1/DTD/svg11.dtd">
<svg version="1.1" xmlns="http://www.w3.org/2000/svg" xmlns:xlink="http://www.w3.org/1999/xlink" x="0px" y="0px"
	 width="23.225px" height="38.832px" viewBox="0 0 23.225 38.832" style="enable-background:new 0 0 23.225 38.832;"
	 xml:space="preserve">
<g id="b106_juice">
	<path d="M22.005,8.512l-0.248-0.529h-8.191L7.213,7.924c-0.008,0.018-0.01,0.037-0.012,0.059c-0.416,0-1.229,3.398-1.229,3.398
		l-0.277,1.748c-0.322,2.734-0.198,6.256,1.646,9.283c3.087,5.08,0.487,12.623,0.462,12.697l-0.055,0.15v3.572h13.332l-0.065-3.627
		l-0.082-0.176c-0.025-0.057-2.621-5.84,0.533-12.477C25.006,15.109,22.128,8.779,22.005,8.512z M19.188,35.617l0.023,1.379H9.584
		v-1.428c0.394-1.189,2.606-8.529-0.605-13.979c0.297,0.449,1.582,1.795,5.358-0.646c4.429-2.857,5.472,0.818,5.472,0.818
		C16.561,28.59,18.712,34.479,19.188,35.617z"/>
	<path d="M1.611,5.268C2.155,2.709,4.683,1.068,7.24,1.615C9.8,2.16,11.441,4.684,10.898,7.244l1.473,0.316
		c0.72-3.375-1.439-6.705-4.813-7.422c-3.371-0.721-6.7,1.441-7.419,4.814c-0.72,3.373,1.441,6.701,4.811,7.418l0.317-1.475
		C2.708,10.354,1.067,7.826,1.611,5.268z"/>
	<path d="M10.441,7.248l0.024-0.115c0.241-1.125,0.026-2.275-0.599-3.242C9.24,2.928,8.275,2.264,7.149,2.023
		C6.747,1.939,6.334,1.908,5.922,1.939c-1.89,0.145-3.488,1.541-3.881,3.4c-0.495,2.322,0.993,4.613,3.314,5.107l0.119,0.025
		l1.193-3.502L10.441,7.248z M6.481,6.688L6.461,6.74C6.348,6.797,6.214,6.814,6.089,6.785C5.94,6.754,5.812,6.668,5.73,6.539
		C5.645,6.41,5.617,6.256,5.651,6.105c0.048-0.244,0.264-0.434,0.513-0.451c0.056-0.004,0.11,0,0.164,0.012
		c0.312,0.066,0.508,0.371,0.443,0.68C6.739,6.488,6.662,6.607,6.544,6.691L6.481,6.688z"/>
</g>
<g id="Capa_1">
</g>
</svg>
