<?xml version="1.0" encoding="iso-8859-1"?>
<!-- Generator: Adobe Illustrator 18.0.0, SVG Export Plug-In . SVG Version: 6.00 Build 0)  -->
<!DOCTYPE svg PUBLIC "-//W3C//DTD SVG 1.1//EN" "http://www.w3.org/Graphics/SVG/1.1/DTD/svg11.dtd">
<svg version="1.1" id="Capa_1" xmlns="http://www.w3.org/2000/svg" xmlns:xlink="http://www.w3.org/1999/xlink" x="0px" y="0px"
	 viewBox="0 0 99.296 76.225" style="enable-background:new 0 0 99.296 76.225;" xml:space="preserve">
<g>
	<path d="M0.67,27.895c1.23,2.011,3.61,2.467,5.78,2.467c0.43,0,0.85-0.019,1.253-0.046C5.167,36.39,3.795,42.891,3.795,49.012
		c0,8.096,1.99,14.013,6.084,18.089c5.967,5.941,15.496,7.081,26.787,7.266c0.299,0.139,0.613,0.27,0.945,0.394
		c3.461,1.289,8.029,1.463,12.042,1.463c4.013,0,8.581-0.174,12.042-1.463c0.332-0.124,0.646-0.255,0.944-0.394
		c11.291-0.185,20.82-1.326,26.787-7.267c4.094-4.076,6.084-9.993,6.084-18.089c0-6.121-1.371-12.621-3.907-18.695
		c2.436,0.163,5.552-0.017,7.023-2.423c2.013-3.292-0.842-7.826-4.148-13.077c-1.877-2.981-3.817-6.064-4.583-8.517
		C89,3.43,86.865,1.44,83.72,0.547c-3.958-1.124-8.632-0.307-11.856,0.576c-3.02,0.827-5.887,2.035-7.769,3.24
		c-4.677-1.607-9.535-2.421-14.447-2.421c-4.913,0-9.77,0.814-14.448,2.421c-1.881-1.205-4.749-2.413-7.769-3.24
		c-3.224-0.883-7.898-1.7-11.856-0.576C12.431,1.44,10.296,3.43,9.4,6.3c-0.765,2.453-2.706,5.536-4.583,8.517
		C1.512,20.068-1.343,24.603,0.67,27.895z M16.863,5.08c2.24-0.636,5.639-0.422,9.324,0.588c3.366,0.922,6.116,2.264,7.094,3.113
		l1.05,0.912l1.982-0.727c4.372-1.555,8.734-2.311,13.335-2.311c4.6,0,8.962,0.756,13.334,2.311l1.983,0.727l1.05-0.912
		c0.978-0.849,3.728-2.191,7.094-3.113c3.686-1.01,7.084-1.224,9.324-0.588c2.111,0.599,2.703,1.784,2.964,2.623
		c0.948,3.04,3.055,6.388,5.093,9.625c1.25,1.986,2.431,3.862,3.221,5.474c0.798,1.628,0.876,2.358,0.871,2.604
		c-0.243,0.11-1.053,0.36-3.128,0.175c-1.052-0.094-2.131-0.262-3.21-0.498l-0.117-0.026c-10.784-2.414-18.912-11.142-18.991-11.228
		L67.4,15.42l-1.737,1.591c0.296,0.323,6.022,6.497,14.605,10.344c1.796,0.805,3.716,1.508,5.739,2.034
		c3.095,6.258,4.792,13.186,4.792,19.623c0,6.779-1.536,11.604-4.697,14.751c-4.01,3.993-10.662,5.317-18.76,5.739
		c0.281-0.78,0.431-1.562,0.494-2.305l0.033,0.002c0.021-0.341,0.45-8.473-5.242-18.964c-1.238-2.281-1.802-4.423-1.691-6.401
		c1.173,0.947,2.705,1.504,4.375,1.504h0.001c0.556,0,1.116-0.063,1.664-0.188c3.724-0.848,6.115-4.34,5.33-7.784
		c-0.657-2.882-3.334-4.895-6.511-4.895c-0.556,0-1.116,0.063-1.664,0.188c-1.124,0.256-2.126,0.755-2.956,1.419l-0.011-0.015
		c-0.242,0.175-2.403,1.798-3.797,4.873c-1.294,2.854-2.15,7.521,1.119,13.546c0.482,0.888,0.913,1.755,1.3,2.596
		c-3.041-1.957-6.542-3.01-10.132-3.01c-3.571,0-7.054,1.042-10.083,2.979c0.442-0.962,0.881-1.823,1.283-2.564
		c3.269-6.026,2.413-10.692,1.12-13.546c-1.394-3.075-3.555-4.698-3.797-4.873l-0.011,0.015c-0.831-0.664-1.832-1.162-2.956-1.419
		c-0.548-0.125-1.108-0.188-1.664-0.188c-3.177,0-5.855,2.013-6.511,4.895c-0.784,3.444,1.607,6.935,5.33,7.784
		c0.548,0.125,1.108,0.188,1.664,0.188c1.671,0,3.204-0.558,4.377-1.505c0.111,1.977-0.454,4.119-1.693,6.402
		c-3.912,7.21-4.933,13.307-5.182,16.525c-0.066,0.512-0.099,1.023-0.099,1.533c0,0.994,0.135,2.104,0.533,3.209
		c-8.097-0.422-14.749-1.746-18.76-5.739c-3.16-3.147-4.696-7.972-4.696-14.751c0-6.436,1.696-13.364,4.791-19.623
		c2.022-0.526,3.943-1.229,5.739-2.034c8.583-3.847,14.309-10.021,14.605-10.344l-1.735-1.591l-1.738-1.593
		c-0.081,0.088-8.209,8.815-18.993,11.23l-0.004,0.001l0-0.001c-1.12,0.25-2.24,0.427-3.332,0.524
		c-2.075,0.185-2.885-0.066-3.128-0.175c-0.005-0.246,0.074-0.976,0.871-2.604c0.79-1.612,1.971-3.488,3.221-5.474
		c2.038-3.237,4.145-6.584,5.093-9.625C14.16,6.864,14.752,5.679,16.863,5.08z M49.652,71.514c-6.481,0-9.978-0.663-11.779-1.841
		c-1.124-0.736-1.588-1.672-1.702-2.774c-0.004-0.11-0.021-0.69,0.047-1.647c0.329-2.279,1.7-4.693,3.81-6.634
		c2.689-2.475,6.107-3.839,9.624-3.839c3.517,0,6.935,1.363,9.624,3.839c2.434,2.24,3.887,5.109,3.887,7.675
		c0,1.367-0.407,2.513-1.732,3.38C59.63,70.851,56.133,71.514,49.652,71.514z M65.176,35.253c0.206-0.047,0.413-0.071,0.618-0.071
		c0.949,0,1.755,0.518,1.918,1.23c0.204,0.895-0.613,1.877-1.783,2.144c-0.205,0.047-0.413,0.07-0.618,0.07h0
		c-0.949,0-1.755-0.517-1.918-1.23C63.189,36.501,64.006,35.519,65.176,35.253z M35.945,37.396c-0.162,0.713-0.969,1.23-1.918,1.23
		c-0.204,0-0.412-0.024-0.618-0.07c-1.17-0.267-1.987-1.248-1.783-2.144c0.162-0.713,0.969-1.23,1.918-1.23
		c0.204,0,0.412,0.024,0.618,0.071C35.332,35.519,36.149,36.501,35.945,37.396z"/>
	<path d="M40.116,67.984c0,0,8.359,0.407,7.819-4.604C47.395,58.37,39.163,59.85,40.116,67.984z"/>
	<path d="M51.361,63.38c-0.54,5.01,7.819,4.604,7.819,4.604C60.132,59.85,51.9,58.37,51.361,63.38z"/>
</g>
<g>
</g>
<g>
</g>
<g>
</g>
<g>
</g>
<g>
</g>
<g>
</g>
<g>
</g>
<g>
</g>
<g>
</g>
<g>
</g>
<g>
</g>
<g>
</g>
<g>
</g>
<g>
</g>
<g>
</g>
</svg>
