<?xml version="1.0" encoding="utf-8"?>
<!-- Generator: Adobe Illustrator 16.0.4, SVG Export Plug-In . SVG Version: 6.00 Build 0)  -->
<!DOCTYPE svg PUBLIC "-//W3C//DTD SVG 1.1//EN" "http://www.w3.org/Graphics/SVG/1.1/DTD/svg11.dtd">
<svg version="1.1" id="Layer_1" xmlns="http://www.w3.org/2000/svg" xmlns:xlink="http://www.w3.org/1999/xlink" x="0px" y="0px"
	 width="50px" height="50px" viewBox="0 0 50 50" enable-background="new 0 0 50 50" xml:space="preserve">
<path d="M36.652,11c-0.506,0-1.055,0.08-1.639,0.236c-0.517-0.498-1.771-1.521-3.348-1.521c-1.129,0-2.18,0.517-3.124,1.533
	c-1.271,1.375-1.185,2.586-0.899,6.604l0.09,1.135c0.162,1.699,0.332,3.459-4.219,4.24c-0.729,0.129-2.007-0.598-3.197-1.742
	c-0.377-0.364-0.76-0.664-1.142-0.944c0.003-0.021,0.023-0.033,0.023-0.056v-2.135c0.38,0.285,0.829,0.48,1.343,0.48
	c0.007,0,0.072-0.002,0.078-0.002c0.607-0.016,1.171-0.271,1.587-0.713c0.417-0.443,0.637-1.023,0.614-1.633
	c-0.037-1.234-1.035-2.199-2.34-2.199h-0.004c-0.606,0.016-1.172,0.27-1.59,0.715c-0.121,0.133-0.193,0.297-0.279,0.449
	c-0.41-0.619-1.094-1.045-1.938-1.045h-0.002c-0.608,0.016-1.171,0.271-1.588,0.717c-0.417,0.445-0.634,1.021-0.612,1.627
	c0.035,1.236,1.034,2.205,2.271,2.205c0.005,0,0.068-0.002,0.072-0.002c0.477-0.014,0.904-0.211,1.276-0.494v1.41
	c-2.86-1.51-5.724-0.725-7.983,2.486c-0.141,0.196-0.138,0.459,0.006,0.651c0.146,0.192,0.396,0.271,0.625,0.192
	c0.019-0.008,1.896-0.637,3.539-0.637c0.25,0,0.477,0.017,0.682,0.041c-1.109,0.271-2.479,1.027-3.045,3.064
	c-0.061,0.209,0.012,0.434,0.179,0.572c0.165,0.141,0.397,0.17,0.595,0.078c0.481-0.23,1.812-0.779,2.865-0.914
	c-0.791,0.707-1.677,1.949-1.773,4.004c-0.012,0.229,0.123,0.443,0.332,0.535c0.215,0.094,0.459,0.045,0.619-0.123
	c0.018-0.017,1.586-1.611,3.133-1.611c1.037,0,1.865,0.77,2.47,2.295c1.116,2.826,3.886,4.523,7.422,4.588v4.082h-9.124
	c-0.306,0-0.556,0.25-0.556,0.555c0,0.308,0.25,0.558,0.556,0.558h19.355c0.307,0,0.556-0.25,0.556-0.558
	c0-0.305-0.249-0.555-0.556-0.555h-9.121v-4.135c0.857-0.061,1.734-0.178,2.646-0.412c1.076-0.275,3.533-1.07,5.172-2.885
	c0,0.002,0,0.004-0.002,0.008c-0.074,0.254,0.037,0.525,0.271,0.65c0.232,0.127,0.523,0.069,0.689-0.142
	c0.045-0.053,4.426-5.517-0.756-10.424c-0.137-0.131-0.297-0.271-0.472-0.418c-0.694-0.599-1.507-1.297-1.769-2.233
	c0.424,0.354,1,0.608,1.617,0.473c0.391-0.082,1.319-0.355,1.521-1.107c0.137-0.504-0.09-1.025-0.662-1.545
	c-0.209-0.201-0.581-0.705-0.521-1.002c0.032-0.178,0.271-0.307,0.336-0.35c0.777-0.113,2.119-0.615,2.295-1.729l0.381-0.117
	c0.142-0.043,0.262-0.143,0.33-0.272c0.067-0.131,0.08-0.283,0.035-0.424C39.948,13.023,39.273,11,36.652,11z M19.699,15.76
	c0.212-0.225,0.502-0.357,0.853-0.367c0.632,0,1.144,0.498,1.163,1.131c0.01,0.312-0.104,0.607-0.314,0.834
	c-0.215,0.229-0.502,0.357-0.814,0.367l-0.043,0.555v-0.555c-0.629,0-1.141-0.494-1.161-1.125
	C19.372,16.285,19.484,15.988,19.699,15.76z M17.59,17.479c-0.212,0.226-0.502,0.357-0.813,0.367l-0.038,0.553v-0.553
	c-0.634,0-1.146-0.496-1.163-1.131c-0.01-0.311,0.102-0.605,0.314-0.834c0.213-0.227,0.5-0.357,0.851-0.367
	c0.634,0,1.147,0.496,1.166,1.133C17.916,16.955,17.802,17.252,17.59,17.479z M38.52,12.984c-0.26,0.08-0.424,0.336-0.388,0.604
	c0.101,0.726-1.347,0.965-1.485,1c-0.811,0.328-1.066,0.832-1.141,1.199c-0.189,0.983,0.737,1.914,0.857,2.026
	c0.324,0.297,0.344,0.443,0.349,0.443c-0.035,0.078-0.299,0.232-0.796,0.328c-0.521,0-1.084-0.801-1.273-1.189
	c-0.103-0.203-0.31-0.328-0.545-0.307c-0.229,0.018-0.422,0.172-0.486,0.391c-0.715,2.375,1.033,3.879,2.076,4.779
	c0.158,0.137,0.307,0.264,0.432,0.381c3.123,2.959,2.244,6.09,1.4,7.74c-0.236-0.248-0.514-0.307-0.574-0.316
	c-0.217-0.026-0.438,0.062-0.559,0.246c-1.345,2.08-4.054,2.961-5.152,3.242c-4.709,1.195-8.579-0.18-9.875-3.459
	c-0.979-2.477-2.441-2.994-3.5-2.994c-1.03,0-2.014,0.486-2.736,0.973c0.585-1.84,2.007-2.415,2.078-2.444
	c0.184-0.067,0.314-0.229,0.351-0.42c0.033-0.192-0.036-0.394-0.186-0.521c-0.771-0.662-2.542-0.365-3.835,0.09
	c0.699-0.969,1.748-1.202,2.607-1.202c0.303,0,0.508,0.032,0.529,0.036c0.204,0.023,0.417-0.049,0.544-0.217
	c0.125-0.172,0.144-0.397,0.047-0.584c-0.467-0.899-1.47-1.356-2.983-1.356c-0.75,0-1.528,0.112-2.19,0.248
	c1.019-1.017,2.099-1.525,3.226-1.525c1.695,0,3.237,1.146,4.236,2.109c0.697,0.67,2.637,2.297,4.157,2.034
	c5.566-0.95,5.307-3.649,5.135-5.438l-0.087-1.109c-0.285-3.998-0.309-4.778,0.607-5.771c0.723-0.78,1.5-1.178,2.309-1.178
	c1.525,0,2.751,1.385,2.764,1.397c0.146,0.168,0.377,0.228,0.584,0.168c0.598-0.186,1.15-0.283,1.639-0.283
	c1.07,0,1.666,0.459,1.972,0.843L38.52,12.984z"/>
</svg>
