<?xml version="1.0" encoding="iso-8859-1"?>
<!-- Generator: Adobe Illustrator 16.0.4, SVG Export Plug-In . SVG Version: 6.00 Build 0)  -->
<!DOCTYPE svg PUBLIC "-//W3C//DTD SVG 1.1//EN" "http://www.w3.org/Graphics/SVG/1.1/DTD/svg11.dtd">
<svg version="1.1" id="Capa_1" xmlns="http://www.w3.org/2000/svg" xmlns:xlink="http://www.w3.org/1999/xlink" x="0px" y="0px"
	 width="14.702px" height="15.001px" viewBox="0 0 14.702 15.001" style="enable-background:new 0 0 14.702 15.001;"
	 xml:space="preserve">
<path style="fill:#010002;" d="M2.288,14.571l-0.204-2.05c0-0.188,0.24-0.021,0.543-0.021l0,0c0.301,0,0.544-0.167,0.544,0.021l0,0
	l-0.17,1.999C3.001,14.957,2.288,14.779,2.288,14.571z M1.415,7.898c-1.493-0.675-1.372-1.737-1.372-1.737
	c-0.188,0.375,0.212,3.646,1.769,3.646C2.508,9.808,3.093,8.652,1.415,7.898z M1.415,5.587c-1.493-0.673-1.372-1.735-1.372-1.735
	c-0.188,0.374,0.212,3.646,1.769,3.646C2.508,7.498,3.093,6.343,1.415,5.587z M1.415,3.345C-0.078,2.675,0.043,1.61,0.043,1.61
	c-0.188,0.375,0.212,3.645,1.769,3.645C2.508,5.255,3.093,4.103,1.415,3.345z M3.485,9.808c1.556,0,1.955-3.271,1.769-3.646
	c0,0,0.121,1.062-1.374,1.737C2.204,8.652,2.787,9.808,3.485,9.808z M1.415,10.266c-1.493-0.675-1.372-1.737-1.372-1.737
	c-0.188,0.375,0.212,3.646,1.769,3.646C2.508,12.175,3.093,11.02,1.415,10.266z M3.485,12.175c1.556,0,1.955-3.271,1.769-3.646
	c0,0,0.121,1.062-1.374,1.737C2.204,11.02,2.787,12.175,3.485,12.175z M3.485,7.498c1.556,0,1.955-3.272,1.769-3.646
	c0,0,0.121,1.062-1.374,1.735C2.204,6.343,2.787,7.498,3.485,7.498z M3.485,5.255c1.556,0,1.955-3.27,1.769-3.645
	c0,0,0.121,1.064-1.374,1.734C2.204,4.103,2.787,5.255,3.485,5.255z M2.757,3.52C4.408,3.52,2.666,0,2.666,0
	C2.456,0.331,1.106,3.52,2.757,3.52z M7.22,14.846l0.996-1.743l0,0c0.079-0.168-0.211-0.122-0.483-0.247l0,0
	c-0.276-0.128-0.424-0.381-0.502-0.21l-0.679,1.943C6.464,14.779,7.035,15.24,7.22,14.846z M8.571,8.171
	C7.503,6.93,8.059,6.018,8.059,6.018C7.73,6.278,6.717,9.415,8.126,10.07C8.758,10.364,9.776,9.563,8.571,8.171z M9.545,6.073
	c-1.068-1.238-0.512-2.15-0.512-2.15c-0.329,0.26-1.344,3.396,0.066,4.053C9.732,8.269,10.749,7.47,9.545,6.073z M10.49,4.042
	C9.418,2.806,9.978,1.89,9.978,1.89C9.648,2.15,8.634,5.285,10.045,5.942C10.677,6.234,11.693,5.437,10.49,4.042z M9.646,10.777
	c1.411,0.653,3.151-2.143,3.139-2.563c0,0-0.337,1.015-1.977,0.996C8.969,9.19,9.013,10.481,9.646,10.777z M7.575,10.317
	c-1.07-1.24-0.514-2.151-0.514-2.151c-0.328,0.26-1.342,3.396,0.068,4.049C7.763,12.509,8.778,11.71,7.575,10.317z M8.648,12.922
	c1.41,0.656,3.151-2.143,3.14-2.562c0,0-0.338,1.015-1.977,0.996C7.972,11.337,8.016,12.629,8.648,12.922z M10.619,8.681
	c1.411,0.655,3.151-2.145,3.139-2.562c0,0-0.337,1.014-1.976,0.996C9.942,7.095,9.986,8.389,10.619,8.681z M11.564,6.646
	c1.411,0.657,3.15-2.141,3.138-2.561c0,0-0.339,1.018-1.976,0.996C10.887,5.062,10.932,6.354,11.564,6.646z M11.633,4.765
	c1.497,0.695,1.4-3.23,1.4-3.23C12.704,1.749,10.137,4.069,11.633,4.765z"/>
<g>
</g>
<g>
</g>
<g>
</g>
<g>
</g>
<g>
</g>
<g>
</g>
<g>
</g>
<g>
</g>
<g>
</g>
<g>
</g>
<g>
</g>
<g>
</g>
<g>
</g>
<g>
</g>
<g>
</g>
</svg>
