<?xml version="1.0" encoding="utf-8"?>
<!-- Generator: Adobe Illustrator 16.0.0, SVG Export Plug-In . SVG Version: 6.00 Build 0)  -->
<!DOCTYPE svg PUBLIC "-//W3C//DTD SVG 1.1//EN" "http://www.w3.org/Graphics/SVG/1.1/DTD/svg11.dtd">
<svg version="1.1" id="Layer_1" xmlns="http://www.w3.org/2000/svg" xmlns:xlink="http://www.w3.org/1999/xlink" x="0px" y="0px"
	 width="100px" height="100px" viewBox="0 0 100 100" enable-background="new 0 0 100 100" xml:space="preserve">
<g>
	<path d="M87.248,19.322c-1.586,0-2.984,0.769-3.882,1.939c-0.188-0.108-0.376-0.204-0.558-0.283
		c-0.029-1.998-1.66-3.616-3.666-3.616c-1.477,0-2.771,0.909-3.344,2.218c-3.699-0.333-8.125-0.33-11.811,0.009
		c-0.568-1.313-1.867-2.227-3.348-2.227c-2.021,0-3.664,1.642-3.67,3.66c-0.24,0.108-0.492,0.244-0.732,0.411
		c-0.887-1.273-2.355-2.112-4.021-2.112c-2.444,0-6.084,3.495-6.792,4.195c-0.189,0.188-0.295,0.442-0.295,0.709
		s0.106,0.521,0.295,0.709c0.705,0.7,4.344,4.195,6.792,4.195c0.813,0,1.569-0.219,2.248-0.57l-1.224,8.401H25.015
		c-5.559,0-10.082,4.523-10.082,10.082v11.937l-6.047,3.256l-1.687-1.055c-0.467-0.291-1.085-0.149-1.378,0.318
		c-0.292,0.468-0.15,1.084,0.318,1.377l1.573,0.984l-0.565,2.426c-0.125,0.539,0.209,1.076,0.748,1.201
		c0.076,0.019,0.152,0.024,0.228,0.024c0.455,0,0.866-0.313,0.973-0.771l0.624-2.686l5.212-2.808v19.94c0,0.552,0.448,1,1,1h4.541
		c0.001,0,0.001,0,0.002,0c0.118,0,0.232-0.028,0.342-0.069c0.028-0.011,0.055-0.021,0.082-0.032
		c0.101-0.05,0.197-0.107,0.278-0.188c0.001-0.002,0.003-0.002,0.004-0.004c0.064-0.063,0.121-0.138,0.167-0.222l3.396-6.125
		l3.777,6.162c0.036,0.058,0.081,0.106,0.126,0.154c0.01,0.012,0.018,0.024,0.029,0.034c0.082,0.082,0.178,0.142,0.279,0.188
		c0.024,0.011,0.048,0.021,0.074,0.027c0.111,0.041,0.225,0.069,0.344,0.069c0.001,0,0.001,0,0.002,0h4.45c0.552,0,1-0.449,1-1
		v-8.99h7.536v8.99c0,0.551,0.448,1,1,1h5.357c0.146,0,0.28-0.035,0.404-0.09c0.032-0.014,0.057-0.041,0.087-0.059
		c0.093-0.053,0.177-0.112,0.246-0.189c0.011-0.013,0.026-0.016,0.035-0.029l6.259-7.641l7.395,8.135
		c0.006,0.006,0.015,0.008,0.02,0.013c0.078,0.082,0.173,0.146,0.273,0.196c0.021,0.011,0.033,0.027,0.055,0.037
		c0.121,0.051,0.253,0.08,0.394,0.08h4.271c0.552,0,1-0.447,1-1v-14.16c0.207,0.008,0.41,0.031,0.621,0.031
		c10.091,0,18.301-8.21,18.301-18.301c0-0.026-0.014-0.049-0.016-0.075c-0.002-0.021,0.008-0.046,0.004-0.068l-2.976-20.459
		c0.654,0.322,1.382,0.521,2.157,0.521c2.445,0,6.085-3.496,6.79-4.195c0.188-0.188,0.295-0.442,0.295-0.709
		s-0.104-0.521-0.295-0.709C93.333,22.816,89.693,19.322,87.248,19.322z M79.145,19.363c0.66,0,1.229,0.384,1.502,0.938
		c-0.172-0.04-0.369-0.074-0.554-0.112c-0.184-0.037-0.358-0.076-0.554-0.112c-0.271-0.05-0.563-0.097-0.852-0.143
		c-0.189-0.029-0.371-0.063-0.567-0.091c-0.041-0.006-0.077-0.013-0.117-0.019C78.302,19.537,78.707,19.363,79.145,19.363z
		 M60.643,19.363c0.441,0,0.853,0.18,1.153,0.474c-0.039,0.006-0.071,0.014-0.11,0.019c-0.232,0.033-0.444,0.07-0.666,0.106
		c-0.261,0.043-0.525,0.085-0.771,0.131c-0.206,0.039-0.395,0.082-0.588,0.123c-0.176,0.037-0.366,0.072-0.529,0.111
		C59.395,19.758,59.975,19.363,60.643,19.363z M52.218,27.132c-1.021,0-3.1-1.525-4.627-2.905c1.528-1.379,3.607-2.904,4.627-2.904
		c1.564,0,2.834,1.244,2.896,2.796l-0.146,1.014C54.581,26.289,53.501,27.132,52.218,27.132z M32.825,80.194h-2.89l-4.067-6.637
		c-0.003-0.004-0.007-0.007-0.01-0.011l0.746-1.344h6.222L32.825,80.194L32.825,80.194z M67.154,80.647h-2.826l-7.876-8.664
		c-0.019-0.02-0.041-0.025-0.06-0.045c-0.02-0.017-0.026-0.041-0.047-0.057c-0.035-0.027-0.076-0.036-0.111-0.061
		c-0.059-0.034-0.113-0.068-0.178-0.094c-0.061-0.021-0.117-0.033-0.18-0.045c-0.064-0.011-0.128-0.021-0.191-0.02
		c-0.063,0.004-0.123,0.015-0.187,0.027c-0.063,0.014-0.122,0.028-0.183,0.055c-0.063,0.027-0.114,0.063-0.17,0.104
		c-0.035,0.023-0.076,0.035-0.109,0.063c-0.02,0.02-0.025,0.041-0.044,0.063c-0.019,0.019-0.04,0.025-0.058,0.045l-6.692,8.172
		h-3.885V64.118c0-0.553-0.448-1-1-1c-0.552,0-1,0.447-1,1v6.084H26.014c-0.044,0-0.082,0.021-0.125,0.025
		c-0.071,0.01-0.138,0.018-0.205,0.041c-0.061,0.021-0.113,0.053-0.168,0.086c-0.055,0.031-0.108,0.063-0.157,0.105
		c-0.053,0.047-0.093,0.102-0.135,0.157c-0.026,0.034-0.062,0.06-0.084,0.1l-5.254,9.476h-2.952V47.045
		c0-4.457,3.625-8.082,8.082-8.082h27.938l-1.469,10.106c-0.004,0.021,0.007,0.047,0.004,0.067
		c-0.002,0.025-0.016,0.049-0.016,0.075c0,9.198,6.83,16.813,15.682,18.091V80.647L67.154,80.647z M69.773,65.515
		c-8.65,0-15.729-6.779-16.25-15.301h32.5C85.505,58.737,78.425,65.515,69.773,65.515z M53.63,48.214l1.416-9.739
		c0.093-0.151,0.16-0.319,0.16-0.512c0-0.089-0.029-0.168-0.05-0.249l1.773-12.199c0.111-0.413,0.191-0.84,0.191-1.286
		c0-0.009-0.002-0.017-0.002-0.023l0.152-1.051c0.098-0.083,0.385-0.287,1.106-0.536c1.166-0.4,2.896-0.733,5.004-0.962
		c3.949-0.433,9.05-0.437,13.021-0.012c2.102,0.226,3.834,0.553,5.02,0.946c0.539,0.18,0.85,0.336,1.023,0.445
		c-0.094,0.183-0.131,0.392-0.103,0.6l0.033,0.229c-0.009,0.122-0.037,0.237-0.037,0.361c0,0.634,0.132,1.233,0.353,1.79
		l3.229,22.196L53.63,48.214L53.63,48.214z M87.248,27.132c-1.152,0-2.146-0.682-2.614-1.658l-0.245-1.693
		c0.002-0.015,0.002-0.029,0.004-0.043c0.135-0.246,0.178-0.47,0.188-0.657c0.446-1.032,1.474-1.757,2.667-1.757
		c1.021,0,3.1,1.525,4.628,2.904C90.348,25.605,88.268,27.132,87.248,27.132z"/>
	<path d="M60.624,39.144c-1.304,0-2.36,1.061-2.36,2.361c0,1.302,1.061,2.361,2.36,2.361c1.303,0,2.362-1.061,2.362-2.361
		C62.986,40.203,61.927,39.144,60.624,39.144z M60.624,41.868c-0.199,0-0.36-0.163-0.36-0.362c0-0.198,0.161-0.361,0.36-0.361
		s0.362,0.163,0.362,0.361C60.986,41.705,60.824,41.868,60.624,41.868z"/>
	<path d="M78.416,39.144c-1.303,0-2.361,1.061-2.361,2.361c0,1.302,1.062,2.361,2.361,2.361c1.302,0,2.361-1.061,2.361-2.361
		C80.777,40.203,79.721,39.144,78.416,39.144z M78.416,41.868c-0.2,0-0.361-0.163-0.361-0.362c0-0.198,0.163-0.361,0.361-0.361
		c0.199,0,0.361,0.163,0.361,0.361C78.777,41.705,78.616,41.868,78.416,41.868z"/>
</g>
</svg>
