<?xml version="1.0" encoding="utf-8"?>
<!-- Generator: Adobe Illustrator 15.0.0, SVG Export Plug-In . SVG Version: 6.00 Build 0)  -->
<!DOCTYPE svg PUBLIC "-//W3C//DTD SVG 1.1//EN" "http://www.w3.org/Graphics/SVG/1.1/DTD/svg11.dtd">
<svg version="1.1" id="Layer_1" xmlns="http://www.w3.org/2000/svg" xmlns:xlink="http://www.w3.org/1999/xlink" x="0px" y="0px"
	 width="64px" height="64px" viewBox="0 0 64 64" enable-background="new 0 0 64 64" xml:space="preserve">
<g>
	<g>
		<path d="M58.946,12.482c-0.494-0.431-0.964-0.842-1.198-1.275c0.439-0.855,0.687-3.237,0.684-3.827L58.42,7.29
			c-0.087-0.308-0.325-0.489-0.645-0.489c-0.411,0-0.911,0.3-1.393,0.592c-0.021,0.013-0.042,0.025-0.065,0.039
			c-0.005-0.83-0.25-1.979-0.499-2.637l-0.114-0.225h-0.238c-1.261,0-1.317,1.396-1.354,2.316c-0.01,0.211-0.021,0.5-0.048,0.682
			c-0.013,0-0.022,0-0.022,0l-0.218,0.006c-0.207,0-0.753,0-1.555-1.699c-0.229-0.475-0.446-0.792-0.762-0.792
			c-0.129,0-0.246,0.055-0.334,0.154c-0.288,0.329-0.295,1.662-0.021,3.963c-3.193,0.614-5.173,2.886-6.928,5.168
			c-0.613,0.799-1.115,2.083-1.647,3.44c-1.237,3.16-2.641,6.743-6.011,6.745c-0.306,0.039-0.622,0.058-0.939,0.058
			c-4.496,0-9.17-3.875-12.582-6.703c-0.839-0.695-1.631-1.354-2.323-1.871c-0.237-0.337-0.494-0.743-0.771-1.181
			c-1.418-2.229-3.399-5.338-6.074-4.985c-0.791,0.103-1.311,0.611-1.813,1.102c-0.456,0.446-0.927,0.908-1.62,1.089
			c-0.765,0.186-7.477,1.901-7.3,4.549c0.095,1.44,2.931,2.929,5.622,4.025c-0.237-0.021-0.463-0.034-0.67-0.034
			c-0.52,0-1.23,0.059-1.421,0.577c-0.167,0.451,0.152,0.991,1.038,1.752c0.512,0.436,1.816,0.927,3.327,1.496
			c1.501,0.568,3.275,1.237,4.389,1.918c-0.345-0.093-0.736-0.204-1.121-0.311c-1.655-0.465-3.53-0.995-4.434-0.995
			c-0.239,0-0.573,0.032-0.73,0.297c-0.054,0.096-0.125,0.297,0.029,0.573c0.762,1.362,5.279,4.969,5.825,5.402l0.468,0.749
			c-0.444,1.19,1.671,3.622,2.632,4.641c-0.196,0.22-0.173,0.537-0.154,0.816c0.006,0.112,0.018,0.223,0.005,0.314l-0.024,0.186
			l0.144,0.121c0.882,0.74,1.239,1.563,1.612,2.433c0.263,0.614,0.536,1.25,1.001,1.877c1.182,1.588,3.202,2.175,5.34,2.796
			c2.931,0.852,5.96,1.73,6.975,5.313c0.128,0.671,0.365,1.228,0.597,1.763c0.359,0.841,0.701,1.637,0.624,2.858
			c-0.321,0.224-1.041,0.362-1.686,0.486c-1.145,0.223-2.332,0.452-2.635,1.259l-0.157,0.417l0.446,0.045
			c0.93,0.095,2.002-0.121,3.033-0.328c1.313-0.269,2.696-0.484,3.506-0.134c-0.058,0.071-0.12,0.142-0.186,0.212
			c-0.239,0.27-0.511,0.571-0.624,1.041l-0.082,0.339l0.337,0.078c0.684,0.157,1.296-0.093,1.832-0.348
			c0.38-0.182,0.739-0.354,1.171-0.371c1.158-0.065,2.319,0.399,3.431,0.833c0.949,0.372,1.848,0.722,2.682,0.722
			c0.281,0,0.534-0.037,0.776-0.117l1.075-0.327l-1.051-0.314c-0.069-0.043-0.19-0.208-0.247-0.329
			c0.27-0.036,0.802-0.027,1.397-0.008c0.35,0.01,0.724,0.022,1.097,0.022c0.916,0,2.045-0.064,2.684-0.554l0.268-0.206
			l-0.201-0.271c-0.252-0.332-0.65-0.467-1-0.582c-0.149-0.05-0.29-0.097-0.41-0.154c0.257-0.298,0.203-0.675,0.17-0.909
			c-0.024-0.179-0.037-0.297,0.006-0.347l0.514-0.577l-0.771,0.006c-0.821,0.007-1.07,0.622-1.251,1.071
			c-0.164,0.406-0.262,0.589-0.497,0.631c-0.207,0.032-0.437,0.047-0.679,0.047c-1.22,0-2.601-0.404-3.609-0.698
			c-0.621-0.183-1.078-0.316-1.376-0.325c-1.508-1.145-2.399-2.961-2.648-5.412c2.426-0.324,3.909-2.543,5.223-4.511
			c0.953-1.428,1.854-2.778,2.998-3.35c6.383-0.687,9.955-5.904,10.919-15.955c0.297-3.062-0.594-4.846-1.535-6.739
			c-0.361-0.727-0.734-1.476-1.041-2.313c0.34-0.15,0.675-0.37,1.026-0.597c0.689-0.446,1.4-0.908,2.192-0.908
			c0.352,0,0.693,0.09,1.043,0.271l0.474,0.249l0.026-0.534C60.937,14.226,59.88,13.298,58.946,12.482z M48.978,56.09
			c0.063-0.162,0.12-0.289,0.175-0.384c0.003,0.024,0.008,0.048,0.011,0.07c0.045,0.334,0.043,0.381-0.178,0.464L48.9,56.273
			C48.928,56.21,48.953,56.148,48.978,56.09z M59.312,15.018c-0.994,0-1.828,0.541-2.566,1.017
			c-0.423,0.274-0.824,0.536-1.187,0.643l-0.339,0.103l0.114,0.337c0.338,1.011,0.77,1.874,1.186,2.709
			c0.896,1.803,1.743,3.503,1.468,6.368c-0.933,9.705-4.325,14.725-10.37,15.343l-0.112,0.031c-1.337,0.641-2.302,2.084-3.325,3.616
			c-1.35,2.021-2.748,4.114-5.042,4.239l-0.348,0.02l0.025,0.35c0.22,2.881,1.246,5.008,3.054,6.316l0.134,0.082l0.136-0.02
			c0.199,0,0.696,0.145,1.223,0.3c1.268,0.372,3.146,0.892,4.591,0.671c0.384-0.067,0.616-0.289,0.776-0.539l0.088,0.14
			c0.244,0.385,0.672,0.527,1.048,0.652c0.09,0.029,0.178,0.06,0.262,0.09c-0.531,0.16-1.243,0.185-1.794,0.185
			c-0.365,0-0.731-0.013-1.074-0.024c-0.713-0.022-1.314-0.025-1.587,0.029c-0.37,0.042-0.522,0.295-0.544,0.52
			c-0.014,0.167,0.049,0.366,0.149,0.549c-0.702-0.003-1.538-0.327-2.422-0.674c-1.062-0.415-2.265-0.886-3.5-0.886
			c-0.069,0-0.142,0.002-0.212,0.004c-0.572,0.025-1.033,0.245-1.438,0.439c-0.335,0.16-0.63,0.3-0.951,0.328
			c0.084-0.123,0.187-0.235,0.297-0.358c0.167-0.188,0.339-0.381,0.472-0.634l0.142-0.272l-0.254-0.171
			c-0.479-0.327-1.076-0.485-1.825-0.485c-0.789,0-1.663,0.178-2.506,0.35c-0.632,0.127-1.28,0.26-1.884,0.313
			c0.424-0.154,0.979-0.262,1.467-0.356c0.888-0.171,1.723-0.333,2.132-0.755l0.085-0.089l0.01-0.12
			c0.129-1.474-0.274-2.415-0.665-3.326c-0.225-0.526-0.438-1.022-0.561-1.649c-0.58-2.058-1.763-3.306-3.178-4.157
			c3.124-0.304,7.007-3.495,8.669-5.99c2.392-3.733,1.254-6.914,0.05-10.283c-0.236-0.657-0.477-1.328-0.698-2.022l-0.654,0.208
			c0.225,0.703,0.467,1.381,0.706,2.045c1.194,3.344,2.228,6.232,0.022,9.677c-1.691,2.534-6.013,6.002-8.948,5.687l-0.024,0.208
			c-1.092-0.518-2.271-0.861-3.394-1.187c-2.024-0.587-3.937-1.144-4.98-2.546c-0.419-0.563-0.663-1.134-0.922-1.737
			c-0.372-0.867-0.757-1.761-1.671-2.577c0-0.082-0.005-0.167-0.011-0.254c-0.006-0.072-0.013-0.178-0.011-0.255
			c0.015,0.003,0.029,0.007,0.048,0.013l1.684,0.568l-1.352-1.155c-0.849-0.724-3.348-3.789-2.87-4.375l0.155-0.191l-0.736-1.179
			l-0.079-0.086c-1.312-1.038-4.738-3.863-5.596-5.082h0.001c0.809,0,2.716,0.537,4.248,0.967c1.315,0.369,2.074,0.579,2.395,0.579
			c0.255,0,0.359-0.138,0.397-0.22l0.077-0.242l-0.131-0.17c-0.839-1.071-3.356-2.018-5.579-2.857
			c-1.389-0.522-2.701-1.019-3.122-1.377c-0.842-0.722-0.84-0.985-0.84-0.985c0.003-0.007,0.135-0.133,0.778-0.133
			c1.816,0,5.353,0.98,5.388,0.991l0.189-0.661c-3.75-1.102-9.738-3.451-9.844-5.055c-0.104-1.565,4.102-3.186,6.783-3.838
			c0.875-0.229,1.438-0.779,1.933-1.264c0.46-0.449,0.858-0.839,1.419-0.911c2.271-0.295,4.085,2.592,5.407,4.672
			c0.295,0.467,0.569,0.896,0.82,1.253l0.075,0.075c0.688,0.513,1.49,1.177,2.339,1.881c3.494,2.897,8.277,6.862,13.021,6.862
			c0.347,0,0.691-0.021,0.983-0.06c3.795,0,5.354-3.981,6.606-7.178c0.514-1.314,0.998-2.552,1.552-3.274
			c1.801-2.342,3.678-4.485,6.818-4.964l0.329-0.05l-0.042-0.332c-0.17-1.357-0.255-2.615-0.234-3.29
			c0.003,0.006,0.007,0.015,0.01,0.021c0.874,1.851,1.62,2.088,2.174,2.088l0.197-0.005l0.175,0.226l0.272-0.232
			c0.285-0.244,0.305-0.725,0.329-1.334c0.04-0.948,0.123-1.476,0.47-1.619c0.31,0.976,0.447,2.27,0.314,2.606l-0.232,0.599
			l0.627-0.138c0.188-0.04,0.412-0.171,0.762-0.383c0.319-0.192,0.797-0.481,1.006-0.505c-0.016,1.023-0.38,3.194-0.635,3.471
			l-0.153,0.161l0.082,0.204c0.26,0.643,0.841,1.152,1.457,1.69c0.72,0.63,1.459,1.279,1.639,2.145
			C59.86,15.06,59.588,15.018,59.312,15.018z"/>
		<path d="M45.284,59.545c-0.857,0-1.764-0.354-2.722-0.73l-0.083-0.032c-1.01-0.393-2.052-0.799-3.088-0.799
			c-0.071,0-0.143,0.004-0.212,0.007c-0.415,0.02-0.762,0.185-1.131,0.359c-0.414,0.197-0.901,0.407-1.447,0.407
			c-0.153,0-0.31-0.016-0.458-0.051l-0.449-0.104l0.107-0.451c0.12-0.49,0.397-0.804,0.643-1.081
			c0.032-0.032,0.062-0.064,0.087-0.095c-0.245-0.078-0.552-0.118-0.916-0.118c-0.732,0-1.613,0.158-2.375,0.313
			c-0.866,0.177-1.758,0.354-2.581,0.354c-0.17,0-0.333-0.008-0.486-0.022l-0.595-0.06l0.212-0.558
			c0.324-0.865,1.543-1.101,2.718-1.328c0.603-0.117,1.274-0.247,1.598-0.439c0.061-1.163-0.27-1.935-0.619-2.75
			c-0.22-0.513-0.471-1.096-0.604-1.787c-0.995-3.509-3.995-4.382-6.895-5.224c-2.156-0.626-4.193-1.216-5.399-2.836
			c-0.472-0.636-0.746-1.272-1.009-1.889c-0.374-0.867-0.72-1.678-1.586-2.402l-0.191-0.162l0.031-0.247
			c0.01-0.072,0.003-0.162-0.003-0.258l-0.001-0.034c-0.018-0.258-0.04-0.572,0.117-0.816c-1.171-1.253-2.977-3.433-2.608-4.634
			l-0.427-0.688c-0.587-0.463-5.065-4.039-5.838-5.421c-0.181-0.324-0.095-0.568-0.029-0.687c0.211-0.353,0.677-0.353,0.829-0.353
			c0.908,0,2.764,0.521,4.401,0.98l0.063,0.018c0.052,0.015,0.103,0.029,0.152,0.043c-1.03-0.503-2.308-0.986-3.469-1.424
			l0.005-0.12l-0.04,0.105c-1.514-0.569-2.82-1.063-3.346-1.511c-0.927-0.795-1.259-1.375-1.071-1.878
			c0.215-0.584,0.977-0.651,1.528-0.651h0.02c-3.298-1.407-5.01-2.706-5.085-3.871c-0.185-2.755,6.612-4.478,7.387-4.666
			c0.662-0.173,1.123-0.624,1.567-1.06c0.518-0.505,1.051-1.025,1.878-1.132c0.145-0.02,0.289-0.029,0.432-0.029
			c2.536,0,4.395,2.928,5.753,5.066l0.022,0.035c0.262,0.414,0.509,0.804,0.735,1.126c0.656,0.491,1.4,1.107,2.188,1.758
			l0.125,0.104c3.4,2.818,8.054,6.678,12.509,6.678c0.308,0,0.619-0.02,0.925-0.058c3.31-0.001,4.695-3.546,5.919-6.671l0.015-0.04
			c0.531-1.351,1.031-2.626,1.649-3.43c1.745-2.271,3.713-4.538,6.893-5.19c-0.399-3.423-0.055-3.816,0.061-3.948
			c0.109-0.124,0.259-0.192,0.419-0.192c0.415,0,0.664,0.441,0.864,0.856c0.771,1.635,1.283,1.635,1.452,1.635l0.14-0.005
			c0.018-0.164,0.025-0.378,0.033-0.544l0.002-0.03c0.036-0.91,0.098-2.425,1.468-2.425h0.31l0.146,0.286
			c0.228,0.604,0.467,1.641,0.505,2.491c0.464-0.279,0.936-0.545,1.35-0.545c0.372,0,0.654,0.213,0.754,0.573l0.016,0.106
			c0.004,0.602-0.232,2.916-0.669,3.838c0.234,0.395,0.674,0.781,1.14,1.188c0.959,0.837,2.038,1.782,1.953,3.305l-0.037,0.71
			l-0.63-0.331c-0.335-0.175-0.659-0.26-0.99-0.26c-0.754,0-1.446,0.449-2.118,0.882l-0.092-0.077l0.063,0.096
			c-0.317,0.207-0.619,0.401-0.927,0.55c0.293,0.784,0.646,1.493,0.986,2.18l-0.087,0.081l0.102-0.052
			c0.947,1.904,1.843,3.704,1.544,6.795c-0.97,10.102-4.568,15.354-11,16.055c-1.107,0.564-1.994,1.893-2.936,3.301
			c-1.303,1.954-2.78,4.162-5.192,4.546c0.259,2.344,1.121,4.094,2.565,5.2c0.313,0.021,0.78,0.157,1.366,0.33
			c1.014,0.296,2.38,0.695,3.577,0.695c0.237,0,0.46-0.017,0.661-0.047c0.17-0.03,0.248-0.16,0.408-0.562
			c0.182-0.452,0.458-1.137,1.355-1.142l1.028-0.009l-0.682,0.771c-0.011,0.027,0.01,0.175,0.02,0.255
			c0.03,0.202,0.082,0.562-0.107,0.876c0.083,0.032,0.175,0.063,0.271,0.095c0.349,0.113,0.78,0.256,1.056,0.619l0.27,0.364
			l-0.356,0.273c-0.667,0.514-1.821,0.578-2.754,0.578c-0.332,0-0.667-0.01-0.983-0.02l-0.117-0.003
			c-0.487-0.015-0.939-0.024-1.202-0.008c0.04,0.058,0.081,0.105,0.105,0.126l1.396,0.419l-1.436,0.437
			C45.846,59.505,45.58,59.545,45.284,59.545z M39.392,57.756c1.078,0,2.142,0.414,3.171,0.815l0.082,0.031
			c0.938,0.368,1.825,0.716,2.64,0.716c0.27,0,0.512-0.037,0.74-0.112l0.717-0.218l-0.717-0.22c-0.095-0.06-0.229-0.246-0.289-0.377
			l-0.064-0.139l0.152-0.022c0.129-0.019,0.319-0.027,0.584-0.027c0.244,0,0.529,0.009,0.831,0.018l0.117,0.004
			c0.314,0.01,0.646,0.019,0.977,0.019c0.896,0,2.002-0.061,2.615-0.529l0.18-0.139l-0.137-0.182
			c-0.232-0.307-0.609-0.432-0.943-0.542c-0.154-0.05-0.298-0.098-0.424-0.159l-0.135-0.064l0.097-0.112
			c0.225-0.261,0.177-0.597,0.145-0.817c-0.025-0.196-0.048-0.35,0.035-0.441l0.342-0.383l-0.517,0.003
			c-0.744,0.005-0.967,0.557-1.146,0.999c-0.16,0.399-0.28,0.648-0.584,0.703c-0.215,0.031-0.449,0.046-0.697,0.046
			c-1.229,0-2.615-0.402-3.627-0.697c-0.607-0.179-1.076-0.318-1.361-0.327h-0.037l-0.029-0.022
			c-1.535-1.165-2.439-3.01-2.693-5.491l-0.011-0.108l0.109-0.015c2.377-0.317,3.848-2.521,5.144-4.463
			c0.963-1.441,1.87-2.802,3.041-3.388l0.039-0.011c6.321-0.679,9.858-5.864,10.817-15.853c0.294-3.025-0.587-4.796-1.521-6.669
			l-0.015-0.031c-0.357-0.72-0.729-1.466-1.033-2.302l-0.036-0.099l0.096-0.043c0.327-0.146,0.651-0.354,0.993-0.578l0.03-0.019
			c0.698-0.451,1.421-0.917,2.242-0.917c0.368,0,0.726,0.091,1.096,0.284l0.316,0.166l0.018-0.354
			c0.078-1.412-0.956-2.318-1.87-3.117c-0.507-0.444-0.98-0.857-1.225-1.308l-0.028-0.053l0.028-0.055
			c0.417-0.812,0.674-3.147,0.671-3.774l-0.011-0.076c-0.069-0.242-0.264-0.39-0.531-0.39c-0.382,0-0.889,0.305-1.333,0.576
			c-0.021,0.011-0.043,0.026-0.069,0.04l-0.168,0.096l-0.002-0.195c-0.005-0.825-0.253-1.968-0.49-2.597l-0.077-0.151h-0.17
			c-1.063,0-1.193,1.043-1.242,2.204v0.034c-0.01,0.215-0.021,0.484-0.048,0.664l-0.013,0.096l-0.337,0.006h-0.003
			c-0.233,0-0.83-0.009-1.657-1.763c-0.212-0.437-0.404-0.728-0.659-0.728c-0.095,0-0.183,0.042-0.247,0.115
			c-0.149,0.172-0.349,0.9,0.006,3.874l0.014,0.106l-0.106,0.021c-3.16,0.608-5.121,2.866-6.858,5.125
			c-0.597,0.779-1.091,2.04-1.617,3.375l-0.015,0.038c-1.249,3.195-2.664,6.814-6.116,6.817c-0.302,0.039-0.622,0.058-0.939,0.058
			c-4.537,0-9.229-3.89-12.654-6.73l-0.126-0.103c-0.791-0.656-1.537-1.274-2.193-1.763l-0.026-0.026
			c-0.231-0.331-0.484-0.728-0.75-1.148l-0.022-0.037c-1.33-2.093-3.152-4.958-5.561-4.958c-0.133,0-0.268,0.008-0.403,0.026
			c-0.75,0.098-1.257,0.592-1.747,1.068c-0.467,0.457-0.948,0.93-1.671,1.12c-0.305,0.074-7.39,1.815-7.215,4.43
			c0.074,1.123,1.994,2.48,5.552,3.927l0.706,0.286l-0.758-0.066c-0.249-0.022-0.465-0.034-0.661-0.034
			c-0.484,0-1.148,0.051-1.313,0.502c-0.147,0.395,0.171,0.913,1.004,1.626c0.496,0.422,1.787,0.908,3.28,1.473L11.1,24.33
			c1.534,0.579,3.271,1.237,4.389,1.921l0.677,0.414l-0.767-0.207c-0.343-0.093-0.731-0.202-1.113-0.31l-0.074-0.021
			c-1.622-0.456-3.461-0.972-4.339-0.972c-0.21,0-0.503,0.025-0.632,0.24c-0.051,0.092-0.088,0.247,0.029,0.459
			c0.775,1.383,5.593,5.207,5.798,5.369l0.026,0.029l0.497,0.797l-0.019,0.053c-0.437,1.168,1.886,3.757,2.608,4.521l0.071,0.076
			l-0.069,0.078c-0.162,0.183-0.145,0.462-0.127,0.731l0.003,0.035c0.008,0.103,0.016,0.209,0.001,0.304l-0.015,0.123l0.097,0.082
			c0.906,0.76,1.264,1.593,1.642,2.477c0.265,0.616,0.534,1.24,0.988,1.853c1.16,1.558,3.162,2.14,5.282,2.754
			c2.959,0.858,6.02,1.749,7.052,5.392c0.13,0.675,0.363,1.221,0.591,1.748c0.367,0.855,0.712,1.66,0.634,2.91l-0.004,0.056
			l-0.046,0.031c-0.341,0.235-1.073,0.378-1.723,0.505c-1.121,0.217-2.274,0.439-2.555,1.186l-0.106,0.279l0.297,0.03
			c0.147,0.015,0.303,0.022,0.465,0.022c0.8,0,1.681-0.179,2.536-0.349c0.772-0.158,1.666-0.319,2.42-0.319
			c0.479,0,0.856,0.063,1.155,0.191l0.138,0.061l-0.096,0.117c-0.06,0.072-0.124,0.146-0.191,0.217
			c-0.244,0.277-0.491,0.555-0.597,0.991l-0.055,0.227l0.225,0.051c0.132,0.032,0.27,0.047,0.407,0.047
			c0.498,0,0.958-0.199,1.35-0.385c0.372-0.179,0.757-0.363,1.217-0.382C39.242,57.758,39.316,57.756,39.392,57.756z M45.469,58.859
			h-0.192c-0.729-0.005-1.571-0.333-2.464-0.683c-1.123-0.438-2.392-0.921-3.667-0.875c-0.548,0.024-0.996,0.239-1.392,0.429
			c-0.331,0.158-0.644,0.308-0.99,0.34l-0.24,0.021l0.137-0.2c0.088-0.127,0.192-0.244,0.305-0.367
			c0.168-0.19,0.333-0.377,0.457-0.612l0.095-0.182l-0.169-0.114c-0.464-0.314-1.039-0.467-1.763-0.467
			c-0.77,0-1.63,0.174-2.459,0.342l-0.074-0.101l0.022,0.112c-0.625,0.126-1.268,0.257-1.868,0.31l-0.864,0.073l0.815-0.295
			c0.435-0.159,0.991-0.267,1.483-0.361c0.87-0.17,1.688-0.327,2.071-0.723l0.057-0.06l0.008-0.08
			c0.125-1.447-0.272-2.374-0.657-3.271c-0.229-0.533-0.444-1.035-0.568-1.674c-0.502-1.78-1.526-3.119-3.125-4.08l-0.295-0.178
			l0.343-0.034c2.959-0.287,6.829-3.303,8.586-5.938c2.361-3.686,1.231-6.843,0.037-10.182c-0.224-0.619-0.451-1.259-0.664-1.918
			l-0.437,0.138c0.22,0.683,0.457,1.346,0.669,1.935c1.206,3.374,2.247,6.285,0.011,9.777c-1.605,2.407-5.673,5.76-8.659,5.76
			c-0.096,0-0.191-0.003-0.284-0.01l-0.029,0.255l-0.144-0.068c-1.094-0.519-2.309-0.87-3.378-1.18
			c-2.043-0.595-3.973-1.154-5.04-2.589c-0.422-0.566-0.667-1.134-0.926-1.737c-0.377-0.877-0.757-1.761-1.652-2.56l-0.037-0.034
			v-0.05c-0.001-0.078-0.006-0.161-0.013-0.245c-0.006-0.075-0.013-0.188-0.011-0.266l0.001-0.142l0.138,0.03
			c0.014,0.003,0.029,0.008,0.044,0.013l1.139,0.384l-0.903-0.771c-0.668-0.569-3.48-3.803-2.884-4.536l0.103-0.127l-0.691-1.11
			l-0.067-0.071c-1.567-1.238-4.773-3.914-5.604-5.093l-0.125-0.18h0.218c0.819,0,2.719,0.533,4.243,0.961l0.037,0.01
			c1.268,0.356,2.06,0.576,2.365,0.576c0.181,0,0.261-0.085,0.296-0.155l0.051-0.17l-0.094-0.122
			c-0.818-1.043-3.314-1.984-5.517-2.817c-1.412-0.531-2.733-1.03-3.168-1.402c-0.581-0.497-0.786-0.794-0.853-0.958H7.071
			l0.156-0.186c0.035-0.04,0.199-0.175,0.869-0.175c1.644,0,4.631,0.781,5.31,0.965l0.128-0.444
			c-2.794-0.833-9.697-3.275-9.818-5.123c-0.124-1.843,4.916-3.481,6.87-3.957c0.845-0.222,1.396-0.761,1.88-1.235
			c0.479-0.467,0.887-0.865,1.487-0.943c0.111-0.014,0.225-0.021,0.335-0.021c2.167,0,3.891,2.715,5.15,4.698l0.03,0.046
			c0.286,0.454,0.563,0.89,0.816,1.25l0.063,0.061c0.668,0.496,1.458,1.15,2.293,1.841l0.037,0.032
			c3.479,2.884,8.245,6.836,12.949,6.836c0.338,0,0.682-0.021,0.967-0.06c3.732,0,5.275-3.939,6.516-7.103
			c0.519-1.325,1.006-2.571,1.569-3.303c1.815-2.364,3.71-4.525,6.891-5.009l0.22-0.034L51.76,9.455
			c-0.166-1.334-0.256-2.602-0.233-3.307l0.013-0.451L51.742,6.1c0.856,1.816,1.561,2.047,2.081,2.047l0.251-0.005l0.139,0.176
			l0.183-0.155c0.247-0.212,0.265-0.672,0.287-1.251c0.042-1.012,0.138-1.554,0.541-1.721l0.113-0.046l0.039,0.117
			c0.308,0.972,0.463,2.302,0.311,2.685l-0.155,0.399l0.42-0.093c0.17-0.039,0.389-0.166,0.727-0.371
			c0.431-0.26,0.834-0.496,1.053-0.521l0.128-0.014l-0.001,0.13c-0.015,0.998-0.372,3.229-0.666,3.546l-0.103,0.109l0.055,0.137
			c0.247,0.616,0.817,1.115,1.421,1.642c0.736,0.645,1.493,1.306,1.681,2.21l0.039,0.189L60.1,15.254
			c-0.26-0.082-0.524-0.124-0.788-0.124c-0.959,0-1.778,0.533-2.502,1.001l-0.025,0.016c-0.422,0.272-0.821,0.531-1.192,0.64
			l-0.226,0.069l0.075,0.225c0.329,0.98,0.746,1.822,1.15,2.637l0.028,0.058c0.906,1.821,1.76,3.536,1.479,6.431
			c-0.938,9.769-4.361,14.82-10.472,15.445l-0.093,0.029c-1.29,0.617-2.246,2.05-3.258,3.563c-1.368,2.051-2.78,4.164-5.133,4.294
			l-0.232,0.014l0.016,0.233c0.22,2.848,1.23,4.945,3.008,6.233l0.091,0.055l0.097-0.015h0.003c0.222,0,0.664,0.127,1.268,0.305
			c0.856,0.251,2.449,0.719,3.808,0.719c0.264,0,0.511-0.018,0.733-0.051c0.297-0.053,0.52-0.209,0.699-0.488l0.08-0.125l0.08-0.189
			c0.029-0.063,0.053-0.123,0.077-0.181c0.072-0.187,0.127-0.307,0.183-0.399l0.167-0.287l0.055,0.399
			c0.048,0.348,0.048,0.475-0.25,0.587l-0.26,0.101l0.148,0.234c0.22,0.35,0.624,0.486,0.982,0.605
			c0.096,0.03,0.185,0.061,0.268,0.091l0.321,0.117l-0.326,0.1c-0.56,0.17-1.311,0.189-1.827,0.189
			c-0.355,0-0.714-0.012-1.049-0.022l-0.029-0.002c-0.293-0.008-0.567-0.015-0.807-0.015c-0.359,0-0.614,0.013-0.754,0.042
			c-0.39,0.045-0.444,0.33-0.452,0.417c-0.011,0.132,0.037,0.305,0.135,0.484L45.469,58.859z M39.354,57.069
			c1.251,0,2.461,0.472,3.527,0.889c0.809,0.317,1.563,0.613,2.21,0.664c-0.061-0.157-0.088-0.308-0.078-0.438
			c0.025-0.269,0.207-0.573,0.643-0.623c0.149-0.028,0.411-0.045,0.791-0.045c0.241,0,0.519,0.007,0.813,0.018h0.03
			c0.332,0.01,0.687,0.022,1.041,0.022c0.39,0,0.916-0.011,1.378-0.093c-0.364-0.123-0.747-0.28-0.986-0.656
			c-0.199,0.247-0.446,0.394-0.751,0.448c-0.238,0.036-0.497,0.055-0.771,0.055c-1.391,0-3.004-0.474-3.872-0.729
			c-0.47-0.138-1.002-0.295-1.19-0.295l-0.16,0.025l-0.168-0.104c-1.844-1.334-2.886-3.488-3.109-6.405l-0.035-0.468l0.466-0.024
			c2.239-0.123,3.618-2.189,4.953-4.189c1.033-1.545,2.007-3.003,3.37-3.654l0.131-0.04c6.003-0.614,9.36-5.6,10.287-15.243
			c0.274-2.83-0.566-4.515-1.455-6.3l-0.03-0.064c-0.409-0.821-0.829-1.67-1.163-2.664l-0.15-0.448l0.452-0.138
			c0.34-0.101,0.727-0.352,1.134-0.615l0.087,0.081l-0.061-0.096c0.749-0.486,1.599-1.035,2.625-1.035
			c0.222,0,0.443,0.025,0.661,0.077c-0.232-0.739-0.904-1.326-1.555-1.896c-0.628-0.548-1.217-1.065-1.486-1.732l-0.109-0.273
			l0.204-0.215c0.203-0.221,0.553-2.138,0.598-3.24c-0.232,0.091-0.607,0.319-0.827,0.453c-0.359,0.216-0.592,0.353-0.796,0.397
			l-0.837,0.183l0.311-0.796c0.114-0.287,0.005-1.434-0.272-2.387c-0.198,0.197-0.26,0.695-0.292,1.444
			c-0.025,0.637-0.045,1.139-0.367,1.416l-0.364,0.31l-0.215-0.274l-0.14,0.003c-0.542,0-1.256-0.208-2.07-1.739
			c0.019,0.72,0.103,1.749,0.234,2.791l0.054,0.443l-0.439,0.066c-3.096,0.473-4.956,2.598-6.744,4.922
			c-0.543,0.708-1.023,1.938-1.534,3.242c-1.269,3.235-2.842,7.251-6.714,7.251c-0.281,0.041-0.636,0.061-0.983,0.061
			c-4.788,0-9.587-3.981-13.093-6.888l-0.037-0.032c-0.836-0.689-1.622-1.342-2.297-1.846l-0.088-0.086
			c-0.27-0.378-0.549-0.818-0.837-1.272l-0.029-0.048c-1.23-1.938-2.917-4.592-4.958-4.592c-0.101,0-0.206,0.006-0.307,0.021
			c-0.523,0.067-0.906,0.441-1.351,0.874c-0.51,0.499-1.084,1.061-1.989,1.298c-2.839,0.693-6.793,2.303-6.699,3.72
			c0.096,1.464,5.767,3.777,9.764,4.953l0.107,0.031l-0.25,0.879l-0.109-0.031c-0.151-0.04-3.604-0.986-5.359-0.986
			c-0.371,0-0.557,0.043-0.64,0.074c0.056,0.117,0.234,0.377,0.778,0.844c0.404,0.347,1.708,0.837,3.086,1.357
			c2.244,0.847,4.772,1.8,5.628,2.894l0.17,0.216l-0.096,0.302c-0.058,0.12-0.193,0.298-0.507,0.298
			c-0.335,0-1.062-0.201-2.426-0.583l-0.037-0.011c-1.376-0.386-3.057-0.858-3.943-0.941c0.996,1.24,3.938,3.689,5.428,4.867
			l0.093,0.099l0.791,1.266l-0.207,0.253c-0.371,0.456,1.862,3.37,2.855,4.217l1.801,1.537l-2.137-0.719
			c0.001,0.032,0.003,0.064,0.006,0.09c0.005,0.07,0.01,0.142,0.011,0.21c0.906,0.823,1.292,1.718,1.662,2.584
			c0.265,0.611,0.505,1.168,0.909,1.714c1.022,1.373,2.916,1.923,4.921,2.505c1.031,0.3,2.196,0.637,3.267,1.125l0.018-0.162
			l0.114,0.013c0.12,0.013,0.245,0.02,0.372,0.02c2.909-0.002,6.894-3.295,8.469-5.656c2.173-3.397,1.151-6.259-0.035-9.576
			c-0.224-0.621-0.477-1.326-0.708-2.05l-0.033-0.107l0.871-0.279l0.035,0.109c0.221,0.693,0.463,1.368,0.696,2.018
			c1.214,3.396,2.36,6.604-0.062,10.385c-1.725,2.589-5.458,5.535-8.433,6.001c1.495,0.979,2.463,2.308,2.958,4.055
			c0.12,0.622,0.33,1.113,0.553,1.633c0.398,0.924,0.806,1.877,0.676,3.383l-0.013,0.16l-0.112,0.117
			c-0.151,0.154-0.352,0.276-0.588,0.376c0.443-0.071,0.88-0.119,1.295-0.119c0.771,0,1.389,0.165,1.892,0.505l0.335,0.229
			l-0.188,0.36c-0.137,0.264-0.312,0.459-0.479,0.648c-0.038,0.042-0.075,0.083-0.108,0.122c0.2-0.06,0.398-0.156,0.619-0.26
			c0.415-0.199,0.885-0.424,1.48-0.451C39.21,57.072,39.284,57.069,39.354,57.069z"/>
	</g>
	<g>
		<path d="M53.232,11.164c-0.68,0-1.235,0.552-1.235,1.233c0,0.68,0.556,1.233,1.235,1.233c0.681,0,1.233-0.553,1.233-1.233
			C54.466,11.715,53.913,11.164,53.232,11.164z M53.232,12.944c-0.302,0-0.549-0.247-0.549-0.547c0-0.301,0.247-0.547,0.549-0.547
			s0.546,0.246,0.546,0.547C53.778,12.697,53.534,12.944,53.232,12.944z"/>
		<path d="M53.232,13.745c-0.744,0-1.348-0.605-1.348-1.348c0-0.744,0.604-1.347,1.348-1.347c0.743,0,1.348,0.603,1.348,1.347
			C54.58,13.14,53.976,13.745,53.232,13.745z M53.232,11.277c-0.617,0-1.121,0.502-1.121,1.12s0.504,1.12,1.121,1.12
			c0.616,0,1.12-0.502,1.12-1.12S53.849,11.277,53.232,11.277z M53.232,13.058c-0.365,0-0.661-0.297-0.661-0.661
			s0.296-0.661,0.661-0.661c0.364,0,0.659,0.296,0.659,0.661S53.597,13.058,53.232,13.058z M53.232,11.964
			c-0.239,0-0.435,0.194-0.435,0.433c0,0.237,0.195,0.433,0.435,0.433c0.237,0,0.434-0.196,0.434-0.433
			C53.666,12.158,53.47,11.964,53.232,11.964z"/>
	</g>
</g>
</svg>
