<?xml version="1.0" encoding="utf-8"?>
<!-- Generator: Adobe Illustrator 16.0.0, SVG Export Plug-In . SVG Version: 6.00 Build 0)  -->
<!DOCTYPE svg PUBLIC "-//W3C//DTD SVG 1.1//EN" "http://www.w3.org/Graphics/SVG/1.1/DTD/svg11.dtd">
<svg version="1.1" id="Layer_1" xmlns="http://www.w3.org/2000/svg" xmlns:xlink="http://www.w3.org/1999/xlink" x="0px" y="0px"
	 width="100px" height="100px" viewBox="0 0 100 100" enable-background="new 0 0 100 100" xml:space="preserve">
<g>
	<path d="M56.98,39.043c-2.259,0-4.095,1.836-4.095,4.094s1.836,4.095,4.095,4.095c2.258,0,4.095-1.837,4.095-4.095
		S59.237,39.043,56.98,39.043z M56.98,45.231c-1.155,0-2.095-0.938-2.095-2.095c0-1.155,0.938-2.094,2.095-2.094
		c1.155,0,2.095,0.938,2.095,2.094C59.074,44.293,58.136,45.231,56.98,45.231z"/>
	<circle cx="41.826" cy="43.137" r="2.094"/>
	<path d="M76.646,26.197l-4.375-2.987c-0.282-0.193-0.643-0.229-0.958-0.094l-5.654,2.424c-0.592-1.899-2.345-3.291-4.437-3.291
		c-2.229,0-4.094,1.573-4.553,3.668H43.285c-0.46-2.095-2.324-3.668-4.554-3.668c-2.085,0-3.834,1.383-4.431,3.272l-5.612-2.405
		c-0.313-0.134-0.675-0.1-0.958,0.094l-4.375,2.987c-0.406,0.277-0.55,0.81-0.34,1.254l2.774,5.868
		c0.166,0.351,0.518,0.573,0.904,0.573h4.225l2.519,1.385L31.75,56.62c-0.142,0.987-0.208,1.823-0.208,2.631
		c0,10.201,8.299,18.5,18.5,18.5c10.201,0,18.502-8.299,18.502-18.5c0-0.808-0.066-1.644-0.201-2.567l-1.698-21.45l2.437-1.34h4.225
		c0.389,0,0.74-0.223,0.904-0.573l2.774-5.868C77.195,27.007,77.052,26.476,76.646,26.197z M61.222,24.249
		c1.117,0,2.072,0.691,2.47,1.668h-4.938C59.149,24.94,60.105,24.249,61.222,24.249z M45.921,43.137
		c0,2.258-1.837,4.095-4.095,4.095c-2.258,0-4.095-1.837-4.095-4.095s1.837-4.094,4.095-4.094
		C44.084,39.043,45.921,40.879,45.921,43.137z M38.732,24.249c1.117,0,2.072,0.691,2.469,1.668h-4.939
		C36.659,24.94,37.614,24.249,38.732,24.249z M72.673,31.893h-3.85c-0.168,0-0.334,0.042-0.48,0.124l-3.229,1.775
		c-0.344,0.188-0.546,0.563-0.515,0.956l1.757,22.155c0.127,0.893,0.188,1.639,0.188,2.348c0,9.101-7.402,16.502-16.502,16.502
		s-16.5-7.401-16.5-16.502c0-0.709,0.06-1.455,0.194-2.41l0.361-4.56l1.261,0.942c0.032,0.023,0.064,0.045,0.098,0.064
		c0.167,0.096,3.318,1.887,6.798,1.887c0.931,0,1.886-0.127,2.813-0.451c2.194-0.764,3.822-2.457,4.838-5.03
		c2.94-7.444,2.731-18.335,2.579-21.776H64.98c0.135,0,0.271-0.027,0.394-0.081l6.219-2.665l3.218,2.197L72.673,31.893z"/>
	<circle cx="46.522" cy="68.642" r="1.96"/>
	<circle cx="55.593" cy="68.642" r="1.96"/>
</g>
</svg>
