<?xml version="1.0" encoding="utf-8"?>
<!-- Generator: Adobe Illustrator 16.0.0, SVG Export Plug-In . SVG Version: 6.00 Build 0)  -->
<!DOCTYPE svg PUBLIC "-//W3C//DTD SVG 1.1//EN" "http://www.w3.org/Graphics/SVG/1.1/DTD/svg11.dtd">
<svg version="1.1" id="Layer_1" xmlns="http://www.w3.org/2000/svg" xmlns:xlink="http://www.w3.org/1999/xlink" x="0px" y="0px"
	 width="100px" height="100px" viewBox="0 0 100 100" enable-background="new 0 0 100 100" xml:space="preserve">
<g>
	<path d="M87.248,19.321c-1.586,0-2.985,0.769-3.882,1.94c-0.188-0.109-0.376-0.205-0.557-0.284c-0.03-1.998-1.66-3.616-3.666-3.616
		c-1.477,0-2.772,0.909-3.344,2.218c-3.699-0.333-8.125-0.33-11.811,0.009c-0.568-1.314-1.867-2.227-3.348-2.227
		c-2.021,0-3.664,1.642-3.67,3.66c-0.239,0.109-0.492,0.244-0.731,0.411c-0.888-1.273-2.356-2.112-4.022-2.112
		c-2.445,0-6.085,3.495-6.792,4.195c-0.189,0.188-0.295,0.443-0.295,0.709c0,0.267,0.106,0.521,0.295,0.709
		c0.705,0.701,4.344,4.196,6.792,4.196c0.813,0,1.569-0.219,2.248-0.571l-1.224,8.402H25.014c-5.559,0-10.082,4.523-10.082,10.082
		v11.936l-6.047,3.256L7.198,61.18c-0.467-0.292-1.085-0.15-1.378,0.318c-0.292,0.468-0.15,1.084,0.318,1.377l1.573,0.984
		l-0.565,2.426c-0.125,0.539,0.209,1.076,0.748,1.201c0.076,0.019,0.152,0.025,0.228,0.025c0.455,0,0.866-0.313,0.973-0.771
		l0.624-2.685l5.212-2.808v19.94c0,0.552,0.448,1,1,1h4.541c0.001,0,0.001,0,0.002,0c0.118,0,0.232-0.028,0.342-0.069
		c0.028-0.01,0.055-0.021,0.082-0.032c0.101-0.05,0.197-0.107,0.278-0.188c0.001-0.001,0.003-0.002,0.004-0.003
		c0.064-0.063,0.121-0.138,0.167-0.222l3.396-6.125l3.777,6.162c0.036,0.058,0.081,0.107,0.126,0.154
		c0.01,0.012,0.018,0.024,0.029,0.035c0.082,0.081,0.178,0.141,0.279,0.188c0.024,0.011,0.048,0.021,0.074,0.027
		c0.111,0.041,0.225,0.069,0.344,0.069c0.001,0,0.001,0,0.002,0h4.45c0.552,0,1-0.448,1-1v-8.989h7.536v8.989c0,0.552,0.448,1,1,1
		h5.357c0.146,0,0.28-0.034,0.404-0.089c0.032-0.014,0.057-0.041,0.087-0.059c0.093-0.053,0.177-0.112,0.246-0.19
		c0.011-0.012,0.026-0.015,0.035-0.028l6.259-7.641l7.395,8.134c0.006,0.007,0.014,0.009,0.019,0.013
		c0.078,0.082,0.173,0.146,0.274,0.197c0.02,0.01,0.033,0.027,0.054,0.036c0.121,0.052,0.253,0.081,0.394,0.081h4.27
		c0.552,0,1-0.447,1-1v-14.16c0.208,0.008,0.41,0.031,0.621,0.031c10.091,0,18.301-8.21,18.301-18.301
		c0-0.027-0.014-0.049-0.016-0.075c-0.002-0.022,0.009-0.046,0.004-0.069l-2.975-20.459c0.654,0.323,1.381,0.522,2.157,0.522
		c2.445,0,6.085-3.496,6.79-4.196c0.189-0.188,0.295-0.442,0.295-0.709c0-0.266-0.105-0.521-0.295-0.709
		C93.333,22.815,89.693,19.321,87.248,19.321z M79.144,19.362c0.66,0,1.229,0.384,1.502,0.939c-0.172-0.04-0.369-0.075-0.553-0.113
		c-0.184-0.037-0.358-0.076-0.554-0.112c-0.271-0.05-0.562-0.097-0.851-0.143c-0.19-0.029-0.371-0.062-0.568-0.09
		c-0.041-0.006-0.077-0.013-0.117-0.019C78.302,19.536,78.707,19.362,79.144,19.362z M60.642,19.362c0.442,0,0.853,0.18,1.154,0.474
		c-0.039,0.006-0.072,0.013-0.111,0.018c-0.232,0.033-0.444,0.071-0.666,0.107c-0.26,0.043-0.525,0.085-0.771,0.131
		c-0.206,0.039-0.395,0.082-0.588,0.123c-0.175,0.037-0.366,0.072-0.529,0.111C59.394,19.757,59.974,19.362,60.642,19.362z
		 M52.218,27.131c-1.021,0-3.101-1.526-4.628-2.906c1.528-1.379,3.607-2.904,4.628-2.904c1.564,0,2.834,1.244,2.895,2.796
		l-0.146,1.014C54.581,26.288,53.501,27.131,52.218,27.131z M86.025,50.213c-0.521,8.521-7.599,15.301-16.251,15.301
		s-15.73-6.779-16.251-15.301 M85.921,48.213H53.63l1.416-9.74c0.092-0.151,0.16-0.319,0.16-0.511c0-0.089-0.029-0.168-0.05-0.249
		l1.774-12.2c0.111-0.413,0.191-0.839,0.191-1.286c0-0.008-0.002-0.016-0.002-0.023l0.153-1.051
		c0.097-0.083,0.384-0.287,1.106-0.536c1.166-0.4,2.896-0.733,5.004-0.962c3.949-0.433,9.049-0.436,13.021-0.012
		c2.101,0.226,3.834,0.553,5.019,0.947c0.539,0.179,0.85,0.336,1.023,0.445c-0.094,0.183-0.13,0.392-0.102,0.6l0.033,0.229
		c-0.009,0.122-0.037,0.237-0.037,0.361c0,0.634,0.131,1.234,0.352,1.79 M87.248,27.131c-1.153,0-2.146-0.682-2.614-1.659
		l-0.246-1.693c0.002-0.015,0.002-0.029,0.004-0.043c0.135-0.246,0.179-0.47,0.189-0.657c0.446-1.032,1.473-1.757,2.667-1.757
		c1.021,0,3.099,1.525,4.628,2.904C90.347,25.604,88.267,27.131,87.248,27.131z"/>
	<path d="M60.624,39.142c-1.303,0-2.361,1.061-2.361,2.362s1.061,2.361,2.361,2.361c1.303,0,2.362-1.061,2.362-2.361
		C62.986,40.202,61.927,39.142,60.624,39.142z M60.624,41.867c-0.199,0-0.361-0.163-0.361-0.362s0.162-0.362,0.361-0.362
		s0.362,0.163,0.362,0.362S60.824,41.867,60.624,41.867z"/>
	<path d="M78.416,39.142c-1.303,0-2.362,1.061-2.362,2.362s1.062,2.361,2.362,2.361c1.302,0,2.362-1.061,2.362-2.361
		C80.778,40.202,79.72,39.142,78.416,39.142z M78.416,41.867c-0.2,0-0.362-0.163-0.362-0.362s0.164-0.362,0.362-0.362
		c0.199,0,0.362,0.163,0.362,0.362S78.616,41.867,78.416,41.867z"/>
</g>
</svg>
