<?xml version="1.0" encoding="utf-8"?>
<!-- Generator: Adobe Illustrator 17.0.2, SVG Export Plug-In . SVG Version: 6.00 Build 0)  -->
<!DOCTYPE svg PUBLIC "-//W3C//DTD SVG 1.0//EN" "http://www.w3.org/TR/2001/REC-SVG-20010904/DTD/svg10.dtd">
<svg version="1.0" id="Layer_1" xmlns="http://www.w3.org/2000/svg" xmlns:xlink="http://www.w3.org/1999/xlink" x="0px" y="0px"
	 width="18.074px" height="34.969px" viewBox="0 0 18.074 34.969" enable-background="new 0 0 18.074 34.969" xml:space="preserve">
<g>
	<rect x="1.202" y="4.446" fill="none" width="15.626" height="4.446"/>
	<rect x="1.202" y="1.202" fill="none" width="15.626" height="2.043"/>
	<rect x="1.246" y="25.536" fill="none" width="15.626" height="8.231"/>
	<rect x="1.246" y="10.094" fill="none" width="15.626" height="6.93"/>
	<path d="M18.029,9.273V3.845V0.601C18.029,0.269,17.76,0,17.429,0H0.601C0.269,0,0,0.269,0,0.601v3.244v5.648
		c0,0.077,0.017,0.15,0.044,0.218v24.658c0,0.332,0.269,0.601,0.601,0.601h16.828c0.332,0,0.601-0.269,0.601-0.601V9.493
		C18.074,9.415,18.056,9.342,18.029,9.273z M1.202,1.202h15.626v2.043H1.202V1.202z M1.202,4.446h15.626v4.446H1.202V4.446z
		 M16.872,33.768H1.246v-8.231h15.626V33.768z M1.605,23.507l0.294-4.616h1.39l0.452,1.541c0.144,0.535,0.288,1.11,0.39,1.651h0.021
		c0.13-0.534,0.288-1.144,0.438-1.657l0.493-1.534h1.363L6.7,23.507H5.68L5.611,21.74c-0.021-0.555-0.041-1.226-0.041-1.897H5.55
		c-0.144,0.589-0.336,1.246-0.514,1.787l-0.562,1.801H3.659l-0.493-1.788c-0.151-0.541-0.308-1.198-0.418-1.801H2.735
		c-0.027,0.623-0.048,1.335-0.082,1.911L2.57,23.507H1.605z M7.5,23.507v-4.616h1.048v4.616H7.5z M12.335,22.63v0.877H9.451v-4.616
		h1.048v3.739H12.335z M14.005,20.931c0.103-0.178,0.212-0.342,0.315-0.506l1.048-1.534h1.281l-1.527,1.966l1.609,2.65h-1.219
		l-1.13-1.993L13.984,22v1.507H12.95v-4.616h1.034v2.041H14.005z M16.872,17.024H1.246v-6.93h15.626V17.024z"/>
</g>
</svg>
