<?xml version="1.0" encoding="utf-8"?>
<!-- Generator: Adobe Illustrator 15.0.0, SVG Export Plug-In . SVG Version: 6.00 Build 0)  -->
<!DOCTYPE svg PUBLIC "-//W3C//DTD SVG 1.1//EN" "http://www.w3.org/Graphics/SVG/1.1/DTD/svg11.dtd">
<svg version="1.1" id="Layer_1" xmlns="http://www.w3.org/2000/svg" xmlns:xlink="http://www.w3.org/1999/xlink" x="0px" y="0px"
	 width="26px" height="26px" viewBox="0 0 26 26" enable-background="new 0 0 26 26" xml:space="preserve">
<g>
	<g>
		<g>
			<path fill="#050505" d="M12.498,4.392c-0.076,0.315-0.358,0.551-0.697,0.551c-0.397,0-0.72-0.323-0.72-0.72
				c0-0.031,0.005-0.061,0.009-0.09L6.948,3.367C7.247,3.552,7.447,3.88,7.447,4.257c0,0.58-0.47,1.051-1.051,1.051
				c-0.58,0-1.05-0.471-1.05-1.051c0-0.51,0.364-0.935,0.847-1.03l-0.63-0.116L1.444,5.838l23.211,0.801L12.498,4.392z M9.52,5.925
				c-0.219,0-0.396-0.177-0.396-0.396S9.3,5.132,9.52,5.132c0.219,0,0.396,0.178,0.396,0.397S9.738,5.925,9.52,5.925z"/>
		</g>
	</g>
	<g>
		<g>
			<path fill="#050505" d="M1.444,23.208c-0.101,0-0.198-0.037-0.272-0.106c-0.082-0.076-0.128-0.183-0.128-0.293V6.84
				c0-0.108,0.044-0.212,0.122-0.288C1.244,6.477,1.347,6.435,1.458,6.44l23.212,0.8c0.216,0.008,0.387,0.185,0.387,0.4v3.209
				c0,0.103-0.04,0.202-0.111,0.276c-0.251,0.263-0.39,0.606-0.39,0.964s0.139,0.701,0.39,0.964
				c0.071,0.075,0.111,0.174,0.111,0.276v7.697c0,0.209-0.162,0.384-0.37,0.399l-23.212,1.78
				C1.464,23.208,1.454,23.208,1.444,23.208z M1.844,7.254v15.122l22.413-1.719v-7.176c-0.325-0.394-0.501-0.882-0.501-1.392
				s0.176-0.998,0.501-1.392v-2.67L1.844,7.254z M14.15,19.848c-0.827,0-1.5-0.674-1.5-1.502c0-0.827,0.673-1.5,1.5-1.5
				c0.828,0,1.501,0.673,1.501,1.5C15.651,19.174,14.979,19.848,14.15,19.848z M14.15,17.646c-0.386,0-0.7,0.314-0.7,0.7
				c0,0.387,0.314,0.701,0.7,0.701s0.701-0.314,0.701-0.701C14.852,17.96,14.536,17.646,14.15,17.646z M19.563,15.225
				c-0.207,0-0.413-0.031-0.614-0.091c-1.133-0.338-1.778-1.535-1.44-2.668c0.269-0.902,1.113-1.532,2.055-1.532
				c0.206,0,0.413,0.03,0.614,0.09c1.133,0.339,1.779,1.536,1.44,2.669C21.349,14.595,20.504,15.225,19.563,15.225z M19.563,11.734
				c-0.591,0-1.119,0.395-1.289,0.96c-0.212,0.71,0.194,1.461,0.904,1.673c0.126,0.038,0.256,0.057,0.385,0.057
				c0.59,0,1.12-0.395,1.288-0.96c0.213-0.711-0.192-1.461-0.903-1.673C19.82,11.753,19.691,11.734,19.563,11.734z M9.833,15.225
				c-1.6,0-2.902-1.303-2.902-2.902c0-1.601,1.302-2.902,2.902-2.902c1.6,0,2.902,1.301,2.902,2.902
				C12.735,13.922,11.433,15.225,9.833,15.225z M9.833,10.222c-1.158,0-2.101,0.942-2.101,2.101c0,1.159,0.943,2.101,2.101,2.101
				c1.159,0,2.102-0.942,2.102-2.101C11.935,11.164,10.992,10.222,9.833,10.222z"/>
		</g>
	</g>
	<g>
		<path fill="#050505" d="M5.446,18.556c-0.833,0-1.511-0.677-1.511-1.51c0-0.834,0.678-1.511,1.511-1.511
			c0.833,0,1.511,0.677,1.511,1.511C6.957,17.879,6.279,18.556,5.446,18.556z M5.446,16.335c-0.393,0-0.711,0.318-0.711,0.711
			c0,0.392,0.318,0.71,0.711,0.71c0.392,0,0.71-0.318,0.71-0.71C6.157,16.653,5.838,16.335,5.446,16.335z"/>
	</g>
</g>
</svg>
