<?xml version="1.0" encoding="iso-8859-1"?>
<!-- Generator: Adobe Illustrator 16.0.0, SVG Export Plug-In . SVG Version: 6.00 Build 0)  -->
<!DOCTYPE svg PUBLIC "-//W3C//DTD SVG 1.1//EN" "http://www.w3.org/Graphics/SVG/1.1/DTD/svg11.dtd">
<svg version="1.1" xmlns="http://www.w3.org/2000/svg" xmlns:xlink="http://www.w3.org/1999/xlink" x="0px" y="0px"
	 width="36.763px" height="32.631px" viewBox="0 0 36.763 32.631" style="enable-background:new 0 0 36.763 32.631;"
	 xml:space="preserve">
<g id="b53_cheese">
	<path d="M20.302,0L0,18.346L36.393,8.52C36.393,8.52,34.559,1.902,20.302,0z M16.821,9.172c-0.848,0-1.536-0.684-1.536-1.535
		c0-0.849,0.688-1.535,1.536-1.535s1.536,0.687,1.536,1.535C18.357,8.488,17.669,9.172,16.821,9.172z M22.216,7.177
		c-0.767,0-1.388-0.621-1.388-1.387s0.621-1.389,1.388-1.389s1.388,0.624,1.388,1.389S22.982,7.177,22.216,7.177z M31.265,9.176
		c-0.934,0-1.692-0.756-1.692-1.694c0-0.936,0.759-1.694,1.692-1.694c0.935,0,1.695,0.758,1.695,1.694
		C32.96,8.419,32.199,9.176,31.265,9.176z"/>
	<path d="M36.644,10.129L0,19.025v13.605h19.227c0.67-2.16,2.661-3.74,5.043-3.74c2.381,0,4.372,1.58,5.042,3.74h7.451
		L36.644,10.129z M10.603,26.968c-0.58,0-1.05-0.468-1.05-1.049c0-0.579,0.47-1.05,1.05-1.05c0.579,0,1.05,0.471,1.05,1.05
		C11.652,26.5,11.182,26.968,10.603,26.968z M12.102,22.767c-0.799,0-1.447-0.647-1.447-1.448c0-0.797,0.648-1.449,1.447-1.449
		c0.802,0,1.449,0.652,1.449,1.449C13.551,22.119,12.903,22.767,12.102,22.767z M18.967,26.968c-1.161,0-2.101-0.94-2.101-2.099
		c0-1.16,0.939-2.103,2.101-2.103c1.158,0,2.101,0.942,2.101,2.103C21.067,26.027,20.125,26.968,18.967,26.968z M28.832,19.869
		c-1.174,0-2.124-0.946-2.124-2.121c0-1.172,0.95-2.124,2.124-2.124c1.173,0,2.123,0.951,2.123,2.124
		C30.955,18.923,30.005,19.869,28.832,19.869z"/>
</g>
<g id="Capa_1">
</g>
</svg>
