<?xml version="1.0" encoding="UTF-8" standalone="no"?>
<svg width="758px" height="144px" viewBox="0 0 758 144" version="1.1" xmlns="http://www.w3.org/2000/svg" xmlns:xlink="http://www.w3.org/1999/xlink" xmlns:sketch="http://www.bohemiancoding.com/sketch/ns">
    <title>Slice 1</title>
    <description>Created with Sketch (http://www.bohemiancoding.com/sketch)</description>
    <defs></defs>
    <g id="Page 1" stroke="none" stroke-width="1" fill="none" fill-rule="evenodd">
        <g id="Layer_1">
            <path d="M97.641,14.453 C93.831,12.338 82.912,13.644 69.799,17.703 C46.847,33.393 27.477,56.506 26.125,93.625 C25.88,94.509 23.616,93.5 23.167,93.227 C16.971,81.347 14.517,68.836 19.688,50.792 C20.653,49.186 17.503,47.21 16.934,47.774 C15.798,48.912 11.062,53.957 7.914,59.411 C-7.675,86.452 2.524,121.11 29.797,136.274 C57.066,151.462 91.499,141.662 106.686,114.388 C124.25,82.903 107.938,20.205 97.641,14.453 L97.641,14.453 Z M97.641,14.453" id="Shape" fill="#83B541"></path>
            <g id="Group" transform="translate(139.000000, 0.000000)" fill="#FFFFFF">
                <path d="M56.252,29.561 C23.922,29.561 0.454,53.598 0.454,86.716 C0.454,120.107 23.857,143.428 57.38,143.428 C74.313,143.428 87.717,138.132 98.379,127.232 C101.558,123.794 101.903,120.481 101.903,119.218 C101.903,113.816 97.884,109.893 92.358,109.893 C89.566,109.893 87.232,110.95 84.562,113.417 C78.524,119.045 70.575,124.788 57.38,124.788 C39.028,124.788 24.107,111.017 23.171,93.327 L96.192,93.327 C104.131,93.327 107.99,89.61 107.99,81.975 C107.99,79.731 107.99,78.108 107.538,74.908 C103.608,46.513 84.433,29.561 56.252,29.561 L56.252,29.561 Z M56.252,47.291 C73.788,47.291 85.038,58.465 85.732,76.497 L23.195,76.497 C24.835,59.809 38.949,47.291 56.252,47.291 L56.252,47.291 Z M56.252,47.291" id="Shape"></path>
                <path d="M177.725,29.561 C163.039,29.561 148.495,38.007 142.815,49.737 L142.815,42.489 C142.815,31.26 134.114,30.692 132.371,30.692 C127.214,30.692 121.702,33.789 121.702,42.489 L121.702,130.046 C121.702,141.709 130.967,142.295 132.823,142.295 C134.679,142.295 143.944,141.709 143.944,130.046 L143.944,83.109 C143.944,62.685 155.518,48.421 172.087,48.421 C188.139,48.421 195.942,58.953 195.942,80.621 L195.942,130.045 C195.942,141.708 205.207,142.294 207.063,142.294 C208.918,142.294 218.184,141.708 218.184,130.045 L218.184,73.628 C218.181,52.323 207.553,29.561 177.725,29.561 L177.725,29.561 Z M177.725,29.561" id="Shape"></path>
                <path d="M318.834,30.692 C313.691,30.692 309.965,33.688 307.747,39.589 L277.313,116.126 L247.106,39.589 C244.739,33.599 241.042,30.692 235.791,30.692 C229.657,30.692 224.671,35.477 224.671,41.361 C224.671,42.816 224.832,44.705 226.066,47.653 L261.046,130.241 C265.209,140.205 272.07,142.294 277.088,142.294 C282.097,142.294 288.958,140.205 293.14,130.246 L328.341,47.2 C329.546,44.285 329.729,42.146 329.729,41.133 C329.729,35.181 325.042,30.692 318.834,30.692 L318.834,30.692 Z M318.834,30.692" id="Shape"></path>
                <path d="M383.517,29.561 C369.29,29.561 356.042,33.525 346.208,40.71 C342.876,43.01 341.253,45.879 341.253,49.485 C341.253,54.453 345.046,58.346 349.896,58.346 C352,58.346 354.343,57.511 356.499,56.003 C364.95,50.37 372.893,47.741 381.487,47.741 C397.932,47.741 407.373,56.108 407.373,70.693 L407.373,73.111 C370.453,73.152 332.904,77.61 332.904,109.728 C332.904,132.848 352.658,143.196 372.234,143.196 C387.83,143.196 400.281,137.021 408.27,125.324 L408.27,130.947 C408.27,139.326 413.893,142.294 418.724,142.294 C419.742,142.294 428.71,141.977 428.71,130.947 L428.71,72.051 C428.71,45.442 411.813,29.561 383.517,29.561 L383.517,29.561 Z M402.695,89.491 L407.372,89.491 L407.372,94.614 C407.372,113.359 395.439,125.469 376.973,125.469 C371.964,125.469 355.601,124.302 355.601,109.278 C355.601,91.541 382.479,89.491 402.695,89.491 L402.695,89.491 Z M402.695,89.491" id="Shape"></path>
                <path d="M486.638,50.902 C496.376,50.902 496.866,43.33 496.866,41.813 C496.866,37.309 494.178,32.495 486.638,32.495 L466.624,32.495 L466.624,12.251 C466.624,3.207 460.757,0 455.734,0 C453.876,0 444.614,0.588 444.614,12.251 L444.614,108.386 C444.614,130.57 455.552,142.295 476.261,142.295 C481.619,142.295 486.839,141.344 490.258,139.759 C494.171,137.806 496.413,134.593 496.413,130.948 C496.413,125.805 492.687,122.079 487.545,122.079 C486.551,122.079 485.139,122.324 483.583,122.77 C481.677,123.25 480.385,123.433 478.974,123.433 C470.551,123.433 466.623,117.935 466.623,106.123 L466.623,50.902 L486.638,50.902 L486.638,50.902 Z M486.638,50.902" id="Shape"></path>
                <path d="M560.199,29.561 C526.559,29.561 502.147,53.408 502.147,86.264 C502.147,102.259 508.063,116.836 518.79,127.314 C529.444,137.705 544.152,143.428 560.199,143.428 C593.427,143.428 618.487,118.853 618.487,86.264 C618.487,53.408 593.965,29.561 560.199,29.561 L560.199,29.561 Z M560.199,124.567 C537.132,124.567 525.06,105.297 525.06,86.263 C525.06,60.106 543.278,48.196 560.199,48.196 C577.126,48.196 595.338,60.106 595.338,86.263 C595.338,112.582 577.126,124.567 560.199,124.567 L560.199,124.567 Z M560.199,124.567" id="Shape"></path>
            </g>
        </g>
    </g>
</svg>